<svg xmlns="http://www.w3.org/2000/svg" xmlns:xlink="http://www.w3.org/1999/xlink" width="64" height="1154" viewBox="0 0 64 1154"><svg width="27" height="18.7" viewBox="16.5 10.7 27 18.7" enable-background="new 17.5 11.7 25 16.7" id="ico-ccard-amex" y="0"><path fill="#5EC1EC" d="M42.5 26.2c0 1.2-.9 2.1-2.1 2.1H19.6c-1.2 0-2.1-.9-2.1-2.1V13.8c0-1.2.9-2.1 2.1-2.1h20.8c1.2 0 2.1.9 2.1 2.1v12.4z"/><g fill="#fff"><path d="M24.8 22l-.2-.7h-1.2l-.2.7H22l1.2-3.9h1.4l1.3 3.9h-1.1zm-.4-1.5l-.2-.6c0-.1-.1-.3-.1-.5s-.1-.4-.1-.5c0 .1 0 .2-.1.5 0 .2-.2.6-.3 1.2h.8v-.1zM28 22l-.8-2.8V22h-.9v-3.9h1.4l.8 2.8.8-2.8h1.4V22h-1v-2.8L29 22h-1zM33.8 22h-2.3v-3.9h2.3v.9h-1.2v.6h1.2v.8h-1.2v.8h1.2v.8zM38 22h-1.2l-.8-1.2-.8 1.2H34l1.3-2-1.2-1.9h1.2l.7 1.2.7-1.2h1.2l-1.2 2L38 22z"/></g><g fill="#fff"><path d="M24.8 22l-.2-.7h-1.2l-.2.7H22l1.2-3.9h1.4l1.3 3.9h-1.1zm-.4-1.5l-.2-.6c0-.1-.1-.3-.1-.5s-.1-.4-.1-.5c0 .1 0 .2-.1.5 0 .2-.2.6-.3 1.2h.8v-.1zM28 22l-.8-2.8V22h-.9v-3.9h1.4l.8 2.8.8-2.8h1.4V22h-1v-2.8L29 22h-1zM33.8 22h-2.3v-3.9h2.3v.9h-1.2v.6h1.2v.8h-1.2v.8h1.2v.8zM38 22h-1.2l-.8-1.2-.8 1.2H34l1.3-2-1.2-1.9h1.2l.7 1.2.7-1.2h1.2l-1.2 2L38 22z"/></g><path fill="#56B1D9" d="M30 11.7"/><path fill="#9BCEE0" d="M40.4 12.1c.9 0 1.7.8 1.7 1.7v12.5c0 .9-.8 1.7-1.7 1.7H19.6c-.9 0-1.7-.7-1.7-1.7V13.8c0-.9.8-1.7 1.7-1.7h20.8m0-.4H19.6c-1.2 0-2.1.9-2.1 2.1v12.5c0 1.2.9 2.1 2.1 2.1h20.8c1.2 0 2.1-.9 2.1-2.1V13.8c0-1.2-.9-2.1-2.1-2.1z"/></svg><svg width="27" height="18.7" viewBox="16.6 10.7 27 18.7" enable-background="new 17.6 11.7 25 16.7" id="ico-ccard-back-of-card" y="19"><path fill="#F0F4F9" d="M42.6 26.2c0 1.2-.9 2.1-2.1 2.1H19.7c-1.2 0-2.1-.9-2.1-2.1V13.8c0-1.2.9-2.1 2.1-2.1h20.8c1.2 0 2.1.9 2.1 2.1v12.4z"/><path fill="#AEBCCE" d="M17.9 14.2h24.6v3.3H17.9z"/><path fill="#fff" d="M20.8 19.2h15v3.3h-15z"/><path fill="#AEBCCE" d="M22.1 20.5h12.1v.8H22.1zM40.5 12.1c.9 0 1.7.8 1.7 1.7v12.5c0 .9-.8 1.7-1.7 1.7H19.7c-.9 0-1.7-.7-1.7-1.7V13.8c0-.9.8-1.7 1.7-1.7h20.8m0-.4H19.7c-1.2 0-2.1.9-2.1 2.1v12.5c0 1.2.9 2.1 2.1 2.1h20.8c1.2 0 2.1-.9 2.1-2.1V13.8c0-1.2-1-2.1-2.1-2.1z"/><path fill="#fff" d="M37.1 19.2h3.3v3.3h-3.3z"/><path fill="#AEBCCE" d="M37.5 20.5H40v.8h-2.5z"/><path fill="#E9564B" d="M38.5 24.5c-2 0-3.7-1.6-3.7-3.7 0-2 1.6-3.7 3.7-3.7s3.7 1.6 3.7 3.7-1.7 3.7-3.7 3.7zm0-6.5c-1.6 0-2.8 1.3-2.8 2.8s1.3 2.8 2.8 2.8 2.8-1.3 2.8-2.8-1.2-2.8-2.8-2.8z"/></svg><svg width="27" height="18.7" viewBox="16.6 10.7 27 18.7" enable-background="new 17.6 11.7 25 16.7" id="ico-ccard-default-front" y="38"><path fill="#F0F4F9" d="M42.6 26.2c0 1.2-.9 2.1-2.1 2.1H19.7c-1.2 0-2.1-.9-2.1-2.1V13.8c0-1.2.9-2.1 2.1-2.1h20.8c1.2 0 2.1.9 2.1 2.1v12.4z"/><path fill="#AEBCCE" d="M20.7 14.7h3.4V18h-3.4zM20.7 20.3h19.5v1.6H20.7zM20.7 23.7h5v.9h-5zM26.6 23.7h3.6v.9h-3.6zM40.5 12.1c.9 0 1.7.8 1.7 1.7v12.5c0 .9-.8 1.7-1.7 1.7H19.7c-.9 0-1.7-.7-1.7-1.7V13.8c0-.9.8-1.7 1.7-1.7h20.8m0-.4H19.7c-1.2 0-2.1.9-2.1 2.1v12.5c0 1.2.9 2.1 2.1 2.1h20.8c1.2 0 2.1-.9 2.1-2.1V13.8c0-1.2-1-2.1-2.1-2.1z"/></svg><svg width="27" height="18.7" viewBox="16.5 10.7 27 18.7" enable-background="new 17.5 11.7 25 16.7" id="ico-ccard-discover" y="57"><path fill="#FFF9F0" d="M42.5 26.2c0 1.2-.9 2.1-2.1 2.1H19.6c-1.2 0-2.1-.9-2.1-2.1V13.8c0-1.2.9-2.1 2.1-2.1h20.8c1.2 0 2.1.9 2.1 2.1v12.4z"/><path fill="#414042" d="M23.8 20c0 .4-.1.8-.4 1-.2.2-.6.3-1 .3h-.7v-2.5h.8c.4 0 .8.1 1 .3.2.2.3.5.3.9zm-.6 0c0-.5-.2-.8-.7-.8h-.3v1.7h.2c.6-.1.8-.4.8-.9zM24.3 21.2v-2.5h.5v2.5h-.5zM27 20.6c0 .2-.1.4-.2.5s-.4.2-.7.2c-.2 0-.5 0-.7-.2v-.5c.2.1.3.1.4.2h.3s.2 0 .3-.1c0 0 .1-.1.1-.2v-.1l-.1-.1s-.2-.1-.3-.2c-.2-.1-.2-.1-.3-.2l-.2-.2c0-.1-.1-.2-.1-.3 0-.2.1-.4.2-.5.2-.1.4-.2.6-.2h.4c.1 0 .2.1.4.1l-.2.4c-.1 0-.2-.1-.3-.1h-.2s-.2 0-.2.1c0 0-.1.1-.1.2v.1s0 .1.1.1.2.1.3.2c.2.1.4.2.5.3-.1.1 0 .3 0 .5zM28.5 19.1c-.2 0-.4.1-.5.2-.1.2-.2.4-.2.6 0 .6.2.8.6.8.2 0 .4 0 .7-.1v.5c-.2.1-.5.1-.7.1-.4 0-.7-.1-.8-.3-.2-.2-.3-.5-.3-1 0-.2 0-.5.1-.7.1-.2.2-.3.4-.5.2-.1.4-.2.6-.2.2 0 .5 0 .7.2l-.2.4c-.1 0-.2-.1-.3-.1.1.2 0 .1-.1.1zM33.5 18.8h.5l-.9 2.5h-.6l-.9-2.5h.5l.5 1.5c0 .1 0 .2.1.3v.2c0-.1 0-.3.1-.5l.7-1.5zM35.8 21.2h-1.5v-2.5h1.5v.4h-.9v.5h.9v.5h-.9v.7h.9v.4zM36.8 20.3v1h-.5v-2.5h.7c.3 0 .6 0 .8.2.2.1.2.3.2.6 0 .2 0 .3-.1.4l-.3.3c.4.6.6 1 .8 1.1h-.6l-.6-1-.4-.1zm0-.4h.2c.2 0 .3 0 .4-.1.1 0 .1-.2.1-.3 0-.1 0-.2-.1-.2s-.2-.1-.4-.1h-.2v.7z"/><circle fill="#E6A124" cx="30.5" cy="20" r="1.2"/><path fill="#E6A124" d="M42.5 23.1v3.1c0 .3 0 .5-.2.8-.1.2-.2.5-.5.7-.2.2-.4.3-.7.5-.2.1-.5.2-.8.2H21.6l20.9-5.3z"/><path fill="#F7F5F2" d="M40.4 12.1c.9 0 1.7.8 1.7 1.7v12.5c0 .9-.8 1.7-1.7 1.7H19.6c-.9 0-1.7-.7-1.7-1.7V13.8c0-.9.8-1.7 1.7-1.7h20.8m0-.4H19.6c-1.1 0-2.1.9-2.1 2.1v12.5c0 1.2.9 2.1 2.1 2.1h20.8c1.2 0 2.1-.9 2.1-2.1V13.8c0-1.2-.9-2.1-2.1-2.1z"/></svg><svg width="27" height="18.7" viewBox="16.5 10.7 27 18.7" enable-background="new 17.5 11.7 25 16.7" id="ico-ccard-mastercard" y="76"><path fill="#5565AF" d="M42.5 26.2c0 1.2-.9 2.1-2.1 2.1H19.6c-1.2 0-2.1-.9-2.1-2.1V13.8c0-1.2.9-2.1 2.1-2.1h20.8c1.2 0 2.1.9 2.1 2.1v12.4z"/><path fill="#56B1D9" d="M30 11.7"/><g fill="#EA564B"><path d="M30 17.2c-.8-.9-1.9-1.4-3.1-1.4-2.3 0-4.2 1.9-4.2 4.2s1.9 4.2 4.2 4.2c1.2 0 2.4-.5 3.1-1.4-.7-.8-1-1.8-1-2.8s.3-2 1-2.8zM30 17.2c-.7.8-1 1.8-1 2.8s.4 2 1 2.8c.7-.8 1-1.7 1-2.8s-.3-2-1-2.8z"/></g><path fill="#E9D419" d="M33.1 15.8c-1.2 0-2.4.5-3.1 1.4-.2.2-.3.4-.5.7h1c.2.2.2.5.4.8h-1.7c-.1.3-.2.6-.2.9h2v.8h-2c0 .3.1.6.2.8h1.6c-.1.3-.2.6-.4.8h-1c.1.2.3.5.5.7.8.9 1.9 1.4 3.1 1.4 2.3 0 4.2-1.9 4.2-4.2.1-2.2-1.8-4.1-4.1-4.1z"/><path fill="#7684B7" d="M40.4 12.1c.9 0 1.7.8 1.7 1.7v12.5c0 .9-.8 1.7-1.7 1.7H19.6c-.9 0-1.7-.7-1.7-1.7V13.8c0-.9.8-1.7 1.7-1.7h20.8m0-.4H19.6c-1.2 0-2.1.9-2.1 2.1v12.5c0 1.2.9 2.1 2.1 2.1h20.8c1.2 0 2.1-.9 2.1-2.1V13.8c0-1.2-.9-2.1-2.1-2.1z"/></svg><svg width="27" height="18.7" viewBox="16.5 10.7 27 18.7" enable-background="new 17.5 11.7 25 16.7" id="ico-ccard-visa" y="95"><path fill="#F3F4F4" d="M42.5 26.2c0 1.2-.9 2.1-2.1 2.1H19.6c-1.2 0-2.1-.9-2.1-2.1V13.8c0-1.2.9-2.1 2.1-2.1h20.8c1.2 0 2.1.9 2.1 2.1v12.4z"/><path fill="#5565AF" d="M17.9 15.8v-2.1c0-1.2.9-1.8 2.1-1.8h20c1.2 0 2.1.6 2.1 1.8v2.1"/><path fill="#E6A124" d="M42.1 24.2v2.1c0 1.2-.9 1.7-2.1 1.7H20c-1.2 0-2.1-.5-2.1-1.7v-2.1"/><g fill="#5565AF"><path d="M24.8 21.4c.2-.5.3-.8.4-.9l1.4-2.9h1l-2.4 4.8h-1.1l-.4-4.8h1l.2 2.9v.4c-.1.2-.1.4-.1.5zM27.1 22.4l1-4.8h1l-1 4.8h-1zM32.2 21c0 .5-.2.8-.5 1.1-.3.2-.7.4-1.3.4-.5 0-.9-.1-1.2-.3v-.9c.4.2.8.3 1.2.3.2 0 .4 0 .6-.1.3-.2.2-.6 0-.8 0 0-.2-.2-.4-.3-.3-.2-.5-.4-.6-.6-.1-.2-.2-.4-.2-.7 0-.3.1-.5.2-.8.1-.2.3-.4.6-.5s.5-.2.9-.2c.5 0 .9.1 1.3.3l-.4.8c-.3-.2-.7-.2-.9-.2-.2 0-.3 0-.5.2s-.2.5-.1.8c.1.1.2.2.5.4.2.2.5.4.6.6.1 0 .2.2.2.5zM35.3 21.2h-1.5l-.5 1.1h-1l2.5-4.8H36l.5 4.8h-1l-.2-1.1zm0-.8l-.1-1.1v-.9c-.1.2-.2.5-.4.8l-.6 1.2h1.1z"/></g><path fill="#fff" d="M30 11.7"/><path fill="#F8F8F9" d="M40.4 12.1c.9 0 1.7.8 1.7 1.7v12.5c0 .9-.8 1.7-1.7 1.7H19.6c-.9 0-1.7-.7-1.7-1.7V13.8c0-.9.8-1.7 1.7-1.7h20.8m0-.4H19.6c-1.2 0-2.1.9-2.1 2.1v12.5c0 1.2.9 2.1 2.1 2.1h20.8c1.2 0 2.1-.9 2.1-2.1V13.8c0-1.2-.9-2.1-2.1-2.1z"/></svg><svg width="40" height="40" viewBox="-1 -1 40 40" id="ico-portal-account" y="114"><g fill="#5A6775"><path d="M21.4 38h-4.8c-.4 0-.8-.3-.8-.8v-4.6c-1.3-.3-2.7-.7-3.8-1.3l-3.2 3.2c-.3.3-.8.3-1.1 0L3.2 30c-.1-.1-.2-.3-.2-.5s.1-.4.2-.5l3.2-3.2c-.5-1.1-.9-2.5-1.3-3.8H.7c-.4 0-.8-.3-.8-.8v-4.8c0-.4.3-.8.8-.8h4.6c.3-1.3.7-2.7 1.3-3.8L3.3 8.9c-.3-.3-.3-.8 0-1.1l4.5-4.5c.3-.3.8-.3 1.1 0l3.2 3.2c1.1-.5 2.5-.9 3.8-1.3V.7c0-.4.3-.8.8-.8h4.8c.4 0 .8.3.8.8v4.6c1.3.3 2.7.7 3.8 1.3l3.2-3.2c.3-.3.8-.3 1.1 0l4.5 4.5c.1.1.2.3.2.5s-.1.4-.2.5l-3.2 3.2c.5 1.1.9 2.5 1.3 3.8h4.6c.4 0 .8.3.8.8v4.8c0 .4-.3.8-.8.8H33c-.3 1.3-.7 2.7-1.3 3.8l3.2 3.2c.3.3.3.8 0 1.1l-4.5 4.5c-.3.3-.8.3-1.1 0l-3.2-3.2c-1.1.5-2.5.9-3.8 1.3v4.6c-.2.1-.5.4-.9.4zm-4-1.5h3.3v-4.4c0-.3.2-.6.6-.7.9-.2 3.2-.8 4.4-1.5.3-.2.7-.1.9.1l3.1 3.1 3.4-3.4-3.1-3.2c-.2-.2-.3-.6-.1-.9.7-1.2 1.3-3.5 1.5-4.4.1-.3.4-.6.7-.6h4.4v-3.3h-4.4c-.3 0-.6-.2-.7-.6-.2-.9-.8-3.2-1.5-4.4-.2-.3-.1-.7.1-.9l3.1-3.1-3.4-3.4L26.5 8c-.2.2-.6.3-.9.1-1.2-.7-3.5-1.3-4.4-1.5-.3-.1-.6-.4-.6-.7V1.5h-3.3v4.4c0 .3-.2.6-.6.7-.9.2-3.2.8-4.4 1.5-.3.2-.7.1-.9-.1L8.3 4.9 4.9 8.3 8 11.5c.2.2.3.6.1.9-.7 1.2-1.3 3.5-1.5 4.4-.1.3-.4.6-.7.6H1.5v3.3h4.4c.3 0 .6.2.7.6.2.9.8 3.2 1.5 4.4.2.3.1.7-.1.9l-3.1 3.1 3.4 3.4 3.1-3.1c.2-.2.6-.3.9-.1 1.2.7 3.5 1.3 4.4 1.5.3.1.6.4.6.7v4.4zM19 26.9c-4.4 0-7.9-3.5-7.9-7.9s3.5-7.9 7.9-7.9 7.9 3.5 7.9 7.9-3.5 7.9-7.9 7.9zm0-14.3c-3.5 0-6.4 2.9-6.4 6.4 0 3.5 2.9 6.4 6.4 6.4s6.4-2.9 6.4-6.4c0-3.5-2.9-6.4-6.4-6.4z"/></g></svg><svg width="40" height="40" viewBox="-1 -1 40 40" id="ico-portal-account-active" y="154"><path fill="#ACDEF0" d="M36.5 16.1h-4.4c-.3-1.2-.7-2.6-1.2-3.6L34 9.4c.1-.1.2-.3.2-.5s-.1-.4-.2-.5l-4.3-4.3c-.3-.3-.7-.3-1 0l-3.1 3.1c-1-.5-2.4-.9-3.6-1.2V1.6c0-.4-.3-.7-.7-.7h-4.5c-.4 0-.7.3-.7.7V6c-1.2.3-2.6.7-3.6 1.2L9.4 4.1c-.3-.3-.7-.3-1 0L4.1 8.4c-.3.3-.3.7 0 1l3.1 3.1c-.5 1-.9 2.4-1.2 3.6H1.6c-.4 0-.7.3-.7.7v4.5c0 .4.3.7.7.7H6c.3 1.2.7 2.6 1.2 3.6l-3.1 3.1c-.1.1-.2.3-.2.5s.1.4.2.5L8.4 34c.3.3.7.3 1 0l3.1-3.1c1 .5 2.4.9 3.6 1.2v4.4c0 .4.3.7.7.7h4.5c.4 0 .7-.3.7-.7v-4.4c1.2-.3 2.6-.7 3.6-1.2l3.1 3.1c.3.3.7.3 1 0l4.3-4.3c.3-.3.3-.7 0-1l-3.1-3.1c.5-1 .9-2.4 1.2-3.6h4.4c.4 0 .7-.3.7-.7v-4.5c0-.4-.3-.7-.7-.7zM19 25.9c-3.9 0-7-3.1-7-7s3.1-7 7-7 7 3.1 7 7c0 3.8-3.1 7-7 7z"/><g fill="#5A6775"><path d="M21.4 38h-4.8c-.4 0-.8-.3-.8-.8v-4.6c-1.3-.3-2.7-.7-3.8-1.3l-3.2 3.2c-.3.3-.8.3-1.1 0L3.2 30c-.1-.1-.2-.3-.2-.5s.1-.4.2-.5l3.2-3.2c-.5-1.1-.9-2.5-1.3-3.8H.7c-.4 0-.8-.3-.8-.8v-4.8c0-.4.3-.8.8-.8h4.6c.3-1.3.7-2.7 1.3-3.8L3.3 8.9c-.3-.3-.3-.8 0-1.1l4.5-4.5c.3-.3.8-.3 1.1 0l3.2 3.2c1.1-.5 2.5-.9 3.8-1.3V.7c0-.4.3-.8.8-.8h4.8c.4 0 .8.3.8.8v4.6c1.3.3 2.7.7 3.8 1.3l3.2-3.2c.3-.3.8-.3 1.1 0l4.5 4.5c.1.1.2.3.2.5s-.1.4-.2.5l-3.2 3.2c.5 1.1.9 2.5 1.3 3.8h4.6c.4 0 .8.3.8.8v4.8c0 .4-.3.8-.8.8H33c-.3 1.3-.7 2.7-1.3 3.8l3.2 3.2c.3.3.3.8 0 1.1l-4.5 4.5c-.3.3-.8.3-1.1 0l-3.2-3.2c-1.1.5-2.5.9-3.8 1.3v4.6c-.2.1-.5.4-.9.4zm-4-1.5h3.3v-4.4c0-.3.2-.6.6-.7.9-.2 3.2-.8 4.4-1.5.3-.2.7-.1.9.1l3.1 3.1 3.4-3.4-3.1-3.2c-.2-.2-.3-.6-.1-.9.7-1.2 1.3-3.5 1.5-4.4.1-.3.4-.6.7-.6h4.4v-3.3h-4.4c-.3 0-.6-.2-.7-.6-.2-.9-.8-3.2-1.5-4.4-.2-.3-.1-.7.1-.9l3.1-3.1-3.4-3.4L26.5 8c-.2.2-.6.3-.9.1-1.2-.7-3.5-1.3-4.4-1.5-.3-.1-.6-.4-.6-.7V1.5h-3.3v4.4c0 .3-.2.6-.6.7-.9.2-3.2.8-4.4 1.5-.3.2-.7.1-.9-.1L8.3 4.9 4.9 8.3 8 11.4c.2.2.3.6.1.9-.7 1.2-1.3 3.5-1.5 4.4-.1.3-.4.6-.7.6H1.5v3.3h4.4c.3 0 .6.2.7.6.2.9.8 3.2 1.5 4.4.2.3.1.7-.1.9l-3.1 3.1L8.3 33l3.1-3.1c.2-.2.6-.3.9-.1 1.2.7 3.5 1.3 4.4 1.5.3.1.6.4.6.7v4.5zM19 26.9c-4.4 0-7.9-3.5-7.9-7.9s3.5-7.9 7.9-7.9 7.9 3.5 7.9 7.9c0 4.3-3.5 7.9-7.9 7.9zm0-14.3c-3.5 0-6.4 2.9-6.4 6.4 0 3.5 2.9 6.4 6.4 6.4s6.4-2.9 6.4-6.4c0-3.5-2.9-6.4-6.4-6.4z"/></g></svg><svg width="40" height="40" viewBox="-1 -1 40 40" id="ico-portal-activity" y="194"><path fill="#5A6775" d="M33.1 6.4c-.1-.1-.1-.2-.3-.3-2.2-2.4-5.1-4.3-8.3-5.2h-.1C22.7.4 20.8.1 19 .1 8.6.1.1 8.6.1 19 .1 29.4 8.6 37.9 19 37.9S37.9 29.4 37.9 19c0-4.8-1.8-9.3-4.8-12.6zm-1.5.6c-.3 1-1.1 3.7-3.2 4.9-2.8-.6-5.5 1-6.1 1.7-.4.4-.2.8-.2 1 .1.3.3.4.6.5.3.3.7 1.5 1 2.6 0 .1.1.3.2.3.8.8 1.9.6 2.6.4.2.9-1.1 2.2-2.3 3.5-.9.9-1.3 1.4-1.3 1.9 0 .6.5 1 .8 1.3.1.1.3.3.4.3 0 0 0 .1-.2.2-1 1-2.1 1.4-2.1 1.4-.3.1-.5.4-.5.7 0 2.1-1.3 3.2-3.9 3.2-.5-.4-1.7-2.6-1.7-3.2 0-.2.2-.5.3-.9.2-.4.5-.9.5-1.5 0-.9-1-2.1-1.6-2.7 0-1-.3-1.7-.8-2.2-.9-.8-2.2-.8-3.5-.7H9.4c-1.6 0-1.6-2.3-1.6-2.4 0 0 .1-4.9 3.4-5.6 2.4-.5 3 0 3.1.1 0 .2.1.4.2.5 1.4 1.4 3.5.9 5.2.5.6-.1 1.2-.3 1.6-.3.4 0 .7-.3.7-.6.3-2.1.4-4.7-.6-5.5-.4-.3-.8-.3-1.3-.1-.6.3-1.1.3-1.5.1-.4-.2-.5-.7-.6-1.1-.1-1.1 3.4-2.5 6.1-3.1 3 1.1 5.5 2.7 7.5 4.8zM19 36.4C9.4 36.4 1.6 28.6 1.6 19 1.6 9.4 9.4 1.6 19 1.6c.7 0 1.4.1 2.2.1-2.2.8-4.7 2.1-4.5 3.9.1 1 .6 1.9 1.3 2.3.8.4 1.7.4 2.7 0 .2.5.2 1.9 0 3.3-.4.1-.8.2-1.3.3-1.3.3-2.9.7-3.7 0-.1-.2-.2-.5-.5-.8-.8-.7-2.2-.8-4.2-.4-4.5.9-4.6 6.8-4.6 7.1 0 1.4.7 3.9 3.1 3.9h1.3c1-.1 2-.1 2.4.3.2.2.4.7.4 1.4 0 .2.1.4.2.5.7.7 1.3 1.6 1.4 1.8 0 .2-.2.5-.3.9-.2.4-.5.9-.5 1.5 0 .9 1.7 4.7 3.1 4.7 3.3 0 5.3-1.5 5.5-4.2.5-.2 1.3-.7 2.2-1.6.4-.4.6-.8.6-1.3 0-.7-.5-1.1-.9-1.4-.1-.1-.2-.1-.2-.2.2-.2.5-.6.8-.9 1.5-1.5 3.9-4.1 2.1-6-.2-.2-.6-.3-.9-.1-.3.2-1 .4-1.4.2-.4-1.5-.8-2.4-1.2-2.9.9-.5 2.6-1.1 4.3-.7.2 0 .4 0 .5-.1 2.3-1.1 3.4-3.5 4-5 2.3 3 3.7 6.6 3.7 10.7-.2 9.7-8 17.5-17.6 17.5z"/></svg><svg width="40" height="40" viewBox="-1 -1 40 40" id="ico-portal-activity-active" y="234"><path fill="#ACDEF0" d="M27.7 2.9c2 1.4 4.3 3.4 4.9 4.1l-.9 2.6-3.1 2.8h-1.8l-2.5.7-.7 1 1.1 2.9.8.6 1.6-.5.6 1.3-3.8 5.1 1.5 1.6-3 2.6-.7 2.2-3.5 1.5-1.2-.1-2-3.7 1-1.8-.5-1.8-1.2-1.7-.7-1.7h-2.9l-2.9-.9-.5-3.7 1.8-4.1 3.5-1 1.8.5 1.7 1h2.6l2.6-.5.4-1.3-.2-2.1-.5-1.3-1.4.2-1.7-.8-.1-2L20 3l4.6-1.6C22.8.8 21 .5 19 .5 9 .5.8 8.6.8 18.7S8.9 37 18.9 37s18.2-8.1 18.2-18.2c0-6.8-3.8-12.8-9.4-15.9z"/><path fill="#5A6775" d="M33.1 6.4c-.1-.1-.1-.2-.3-.3-2.2-2.4-5.1-4.3-8.3-5.2h-.1C22.7.4 20.8.1 19 .1 8.6.1.1 8.6.1 19 .1 29.4 8.6 37.9 19 37.9S37.9 29.4 37.9 19c0-4.8-1.8-9.3-4.8-12.6zm-1.5.6c-.3 1-1.1 3.7-3.2 4.9-2.8-.6-5.5 1-6.1 1.7-.4.4-.2.8-.2 1 .1.3.3.4.6.5.3.3.7 1.5 1 2.6 0 .1.1.3.2.3.8.8 1.9.6 2.6.4.2.9-1.1 2.2-2.3 3.5-.9.9-1.3 1.4-1.3 1.9 0 .6.5 1 .8 1.3.1.1.3.3.4.3 0 0 0 .1-.2.2-1 1-2.1 1.4-2.1 1.4-.3.1-.5.4-.5.7 0 2.1-1.3 3.2-3.9 3.2-.5-.4-1.7-2.6-1.7-3.2 0-.2.2-.5.3-.9.2-.4.5-.9.5-1.5 0-.9-1-2.1-1.6-2.7 0-1-.3-1.7-.8-2.2-.9-.8-2.2-.8-3.5-.7H9.4c-1.6 0-1.6-2.3-1.6-2.4 0 0 .1-4.9 3.4-5.6 2.4-.5 3 0 3.1.1 0 .2.1.4.2.5 1.4 1.4 3.5.9 5.2.5.6-.1 1.2-.3 1.6-.3.4 0 .7-.3.7-.6.3-2.1.4-4.7-.6-5.5-.4-.3-.8-.3-1.3-.1-.6.3-1.1.3-1.5.1-.4-.2-.5-.7-.6-1.1-.1-1.1 3.4-2.5 6.1-3.1 3 1.1 5.5 2.7 7.5 4.8zM19 36.4C9.4 36.4 1.6 28.6 1.6 19 1.6 9.4 9.4 1.6 19 1.6c.7 0 1.4.1 2.2.1-2.2.8-4.7 2.1-4.5 3.9.1 1 .6 1.9 1.3 2.3.8.4 1.7.4 2.7 0 .2.5.2 1.9 0 3.3-.4.1-.8.2-1.3.3-1.3.3-2.9.7-3.7 0-.1-.2-.2-.5-.5-.8-.8-.7-2.2-.8-4.2-.4-4.5.9-4.6 6.8-4.6 7.1 0 1.4.7 3.9 3.1 3.9h1.3c1-.1 2-.1 2.4.3.2.2.4.7.4 1.4 0 .2.1.4.2.5.7.7 1.3 1.6 1.4 1.8 0 .2-.2.5-.3.9-.2.4-.5.9-.5 1.5 0 .9 1.7 4.7 3.1 4.7 3.3 0 5.3-1.5 5.5-4.2.5-.2 1.3-.7 2.2-1.6.4-.4.6-.8.6-1.3 0-.7-.5-1.1-.9-1.4-.1-.1-.2-.1-.2-.2.2-.2.5-.6.8-.9 1.5-1.5 3.9-4.1 2.1-6-.2-.2-.6-.3-.9-.1-.3.2-1 .4-1.4.2-.4-1.5-.8-2.4-1.2-2.9.9-.5 2.6-1.1 4.3-.7.2 0 .4 0 .5-.1 2.3-1.1 3.4-3.5 4-5 2.3 3 3.7 6.6 3.7 10.7-.2 9.7-8 17.5-17.6 17.5z"/></svg><svg width="40" height="40" viewBox="-1 -1 40 40" id="ico-portal-dashboard" y="274"><g fill="#5A6775"><path d="M19 38C8.5 38 0 29.5 0 19S8.5 0 19 0s19 8.5 19 19-8.5 19-19 19zm0-36.5C9.3 1.5 1.5 9.3 1.5 19S9.3 36.5 19 36.5 36.5 28.6 36.5 19 28.7 1.5 19 1.5zM29.2 8.9c-.3-.3-.8-.3-1.1 0l-7.4 7.4c-.5-.3-1-.5-1.6-.5-1.7 0-3.1 1.4-3.1 3.1 0 1.7 1.4 3.1 3.1 3.1 1.7 0 3.1-1.4 3.1-3.1 0-.6-.2-1.1-.5-1.6l7.4-7.4c.4-.2.4-.7.1-1zM19.1 20.6c-.9 0-1.6-.7-1.6-1.6 0-.9.7-1.6 1.6-1.6.9 0 1.6.7 1.6 1.6.1.9-.7 1.6-1.6 1.6zM7.1 20H4c-.4 0-.7-.3-.7-.7 0-.4.3-.7.7-.7h3.2c.4 0 .7.3.7.7 0 .4-.4.7-.8.7zM5.2 25.5c-.3 0-.6-.2-.7-.5-.2-.4 0-.8.4-1l2.9-1.2c.4-.2.8 0 1 .4.2.4 0 .8-.4 1l-2.9 1.2c-.1.1-.2.1-.3.1zM33.1 25.5c-.1 0-.2 0-.3-.1l-2.9-1.2c-.4-.2-.6-.6-.4-1 .2-.4.6-.6 1-.4l2.9 1.2c.4.2.6.6.4 1-.2.3-.5.5-.7.5zM34.2 19.7H31c-.4 0-.7-.3-.7-.7 0-.4.3-.7.7-.7h3.2c.4 0 .7.3.7.7 0 .4-.3.7-.7.7zM30.1 15.2c-.3 0-.6-.2-.7-.5-.2-.4 0-.8.4-1l2.9-1.2c.4-.2.8 0 1 .4.2.4 0 .8-.4 1l-2.9 1.2c-.1.1-.2.1-.3.1zM23.7 8.7c-.1 0-.2 0-.3-.1-.4-.2-.6-.6-.4-1l1.2-2.9c.2-.4.6-.6 1-.4.4.2.6.6.4 1l-1.2 2.9c-.2.4-.4.5-.7.5zM19 8.1c-.4 0-.7-.3-.7-.7V4.2c0-.4.3-.7.7-.7.4 0 .7.3.7.7v3.2c.1.4-.3.7-.7.7zM14.6 8.7c-.3 0-.6-.2-.7-.5l-1.2-2.9c-.2-.4 0-.8.4-1 .4-.2.8 0 1 .4l1.2 2.9c.2.4 0 .8-.4 1-.1.1-.2.1-.3.1zM10.7 11.3c-.2 0-.4-.1-.5-.2L7.9 8.9c-.3-.3-.3-.8 0-1.1.3-.3.8-.3 1.1 0l2.2 2.2c.3.3.3.8 0 1.1-.1.2-.3.2-.5.2zM8.1 15.2c-.1 0-.2 0-.3-.1l-2.9-1.2c-.4-.2-.6-.6-.4-1 .2-.4.6-.6 1-.4l2.9 1.2c.4.2.6.6.4 1-.1.3-.4.5-.7.5z"/></g></svg><svg width="40" height="40" viewBox="-1 -1 40 40" id="ico-portal-dashboard-active" y="314"><path fill="#ACDEF0" d="M18.9.6C8.7.6.4 8.8.4 19s8.3 18.4 18.4 18.4c10.2 0 18.4-8.3 18.4-18.4S29.1.6 18.9.6zm.2 20.9c-1.3 0-2.3-1-2.3-2.3 0-1.3 1-2.3 2.3-2.3 1.3 0 2.3 1 2.3 2.3.1 1.2-1 2.3-2.3 2.3z"/><path fill="#5A6775" d="M19 38C8.5 38 0 29.5 0 19S8.5 0 19 0s19 8.5 19 19-8.5 19-19 19zm0-36.5C9.3 1.5 1.5 9.3 1.5 19S9.3 36.5 19 36.5 36.5 28.6 36.5 19 28.7 1.5 19 1.5zM29.2 8.9c-.3-.3-.8-.3-1.1 0l-7.4 7.4c-.5-.3-1-.5-1.6-.5-1.7 0-3.1 1.4-3.1 3.1 0 1.7 1.4 3.1 3.1 3.1 1.7 0 3.1-1.4 3.1-3.1 0-.6-.2-1.1-.5-1.6l7.4-7.4c.4-.2.4-.7.1-1zM19.1 20.6c-.9 0-1.6-.7-1.6-1.6 0-.9.7-1.6 1.6-1.6.9 0 1.6.7 1.6 1.6.1.9-.7 1.6-1.6 1.6zM7.1 20H4c-.4 0-.7-.3-.7-.7 0-.4.3-.7.7-.7h3.2c.4 0 .7.3.7.7 0 .4-.4.7-.8.7zM5.2 25.5c-.3 0-.6-.2-.7-.5-.2-.4 0-.8.4-1l2.9-1.2c.4-.2.8 0 1 .4.2.4 0 .8-.4 1l-2.9 1.2c-.1.1-.2.1-.3.1zM33.1 25.5c-.1 0-.2 0-.3-.1l-2.9-1.2c-.4-.2-.6-.6-.4-1 .2-.4.6-.6 1-.4l2.9 1.2c.4.2.6.6.4 1-.2.3-.5.5-.7.5zM34.2 19.7H31c-.4 0-.7-.3-.7-.7 0-.4.3-.7.7-.7h3.2c.4 0 .7.3.7.7 0 .4-.3.7-.7.7zM30.1 15.2c-.3 0-.6-.2-.7-.5-.2-.4 0-.8.4-1l2.9-1.2c.4-.2.8 0 1 .4.2.4 0 .8-.4 1l-2.9 1.2c-.1.1-.2.1-.3.1zM23.7 8.7c-.1 0-.2 0-.3-.1-.4-.2-.6-.6-.4-1l1.2-2.9c.2-.4.6-.6 1-.4.4.2.6.6.4 1l-1.2 2.9c-.2.4-.4.5-.7.5zM19 8.1c-.4 0-.7-.3-.7-.7V4.2c0-.4.3-.7.7-.7.4 0 .7.3.7.7v3.2c.1.4-.3.7-.7.7zM14.6 8.7c-.3 0-.6-.2-.7-.5l-1.2-2.9c-.2-.4 0-.8.4-1 .4-.2.8 0 1 .4l1.2 2.9c.2.4 0 .8-.4 1-.1.1-.2.1-.3.1zM10.7 11.3c-.2 0-.4-.1-.5-.2L7.9 8.9c-.3-.3-.3-.8 0-1.1.3-.3.8-.3 1.1 0l2.2 2.2c.3.3.3.8 0 1.1-.1.2-.3.2-.5.2zM8.1 15.2c-.1 0-.2 0-.3-.1l-2.9-1.2c-.4-.2-.6-.6-.4-1 .2-.4.6-.6 1-.4l2.9 1.2c.4.2.6.6.4 1-.1.3-.4.5-.7.5z"/></svg><svg width="16" height="15" viewBox="-1 -1 16 15" id="ico-portal-delete" y="354"><title>delete 3</title><desc>Created with Sketch.</desc><path d="M13.55 1.31L12.228-.013l-5.04 5.04-5.04-5.04L.825 1.31l5.04 5.04-5.04 5.04 1.324 1.323 5.04-5.04 5.04 5.04 1.323-1.324-5.038-5.04 5.04-5.04z" fill="#AEBCCE"/></svg><svg width="40" height="40" viewBox="-1 -1 40 40" id="ico-portal-devices" y="369"><g fill="#5A6775"><path d="M27.7 0H10.3c-2.2 0-4 1.8-4 3.9v30.2c0 2.2 1.8 3.9 3.9 3.9h17.5c2.2 0 3.9-1.8 3.9-3.9V3.9c.1-2.1-1.7-3.9-3.9-3.9zM7.8 7.8h22.3v22.3H7.8V7.8zm2.5-6.3h17.5c1.3 0 2.4 1.1 2.4 2.4v2.4H7.8V3.9c0-1.3 1.1-2.4 2.5-2.4zm17.4 35H10.3c-1.3 0-2.4-1.1-2.4-2.4v-2.4h22.3v2.4c0 1.3-1.1 2.4-2.5 2.4z"/><circle cx="19" cy="34.1" r="1.6"/><path d="M15 4.7h8c.4 0 .8-.3.8-.8s-.4-.7-.8-.7h-8c-.4 0-.8.3-.8.8s.4.7.8.7z"/></g></svg><svg width="40" height="40" viewBox="-1 -1 40 40" id="ico-portal-devices-active" y="409"><path fill="#ACDEF0" d="M6.9 6.9H31v23.9H6.9z"/><g fill="#5A6775"><path d="M27.7 0H10.3c-2.2 0-4 1.8-4 3.9v30.2c0 2.2 1.8 3.9 3.9 3.9h17.5c2.2 0 3.9-1.8 3.9-3.9V3.9c.1-2.1-1.7-3.9-3.9-3.9zM7.8 7.8h22.3v22.3H7.8V7.8zm2.5-6.3h17.5c1.3 0 2.4 1.1 2.4 2.4v2.4H7.8V3.9c0-1.3 1.1-2.4 2.5-2.4zm17.4 35H10.3c-1.3 0-2.4-1.1-2.4-2.4v-2.4h22.3v2.4c0 1.3-1.1 2.4-2.5 2.4z"/><circle cx="19" cy="34.1" r="1.6"/><path d="M15 4.7h8c.4 0 .8-.3.8-.8s-.4-.7-.8-.7h-8c-.4 0-.8.3-.8.8s.4.7.8.7z"/></g></svg><svg width="40" height="40" viewBox="-1 -1 40 40" id="ico-portal-feedback" y="449"><path fill="#5A6775" d="M7 33.7c-1.7 0-3.1-1.4-3.1-3.1s1.4-3.1 3.1-3.1c1.7 0 3.1 1.4 3.1 3.1S8.7 33.7 7 33.7zM7 29c-.9 0-1.6.7-1.6 1.6s.7 1.6 1.6 1.6c.9 0 1.6-.7 1.6-1.6S7.9 29 7 29zM1.6 34.5c-.9 0-1.5.7-1.5 1.5 0 .9.7 1.5 1.5 1.5.9 0 1.5-.7 1.5-1.5.1-.8-.6-1.5-1.5-1.5zM17.2 28.5c-3 0-5.8-1.4-7.6-3.9-5.3 0-9.5-4.4-9.5-9.8S4.4 5 9.7 5c1.7 0 3.4.5 4.9 1.4C17 2.7 21 .4 25.4.4 32.5.4 38 6.2 38 13.5c0 7.4-5.5 13.1-12.6 13.1-.8 0-1.5-.1-2.3-.2-1.7 1.4-3.8 2.1-5.9 2.1zm-6.8-5.4l.2.3c1.5 2.2 4 3.6 6.6 3.6 1.9 0 3.7-.7 5.1-1.9l.3-.2.4.1c.8.2 1.5.2 2.3.2 6.2 0 11.1-5.1 11.1-11.6S31.5 2 25.3 2c-4.1 0-7.9 2.3-9.9 5.9l-.4.7-.7-.5c-1.4-1-3-1.5-4.7-1.5-4.5 0-8.1 3.7-8.1 8.3 0 4.6 3.6 8.3 8.1 8.3l.8-.1z"/><g fill="#5A6775"><path d="M10.9 17.2c-.7 0-1.3-.6-1.3-1.3 0-.7.6-1.3 1.3-1.3.7 0 1.3.6 1.3 1.3 0 .7-.6 1.3-1.3 1.3zm0-1.6c-.2 0-.3.1-.3.3 0 .3.5.3.5 0 .1-.2-.1-.3-.2-.3zM18.6 17.2c-.7 0-1.3-.6-1.3-1.3 0-.7.6-1.3 1.3-1.3.7 0 1.3.6 1.3 1.3 0 .7-.6 1.3-1.3 1.3zm0-1.6c-.2 0-.3.1-.3.3 0 .3.5.3.5 0 .1-.2 0-.3-.2-.3zM26.4 17.2c-.7 0-1.3-.6-1.3-1.3 0-.7.6-1.3 1.3-1.3s1.3.6 1.3 1.3c-.1.7-.6 1.3-1.3 1.3zm0-1.6c-.2 0-.3.1-.3.3 0 .3.5.3.5 0 0-.2-.1-.3-.2-.3z"/></g></svg><svg width="40" height="40" viewBox="-1 -1 40 40" id="ico-portal-feedback-active" y="489"><path fill="#ACDEF0" d="M25 1.3c-4.1 0-8 2.2-10.2 5.7-1.4-.8-3-1.3-4.6-1.3-5 0-9.1 4.1-9.1 9.2s4 9.2 9 9.2c1.7 2.3 4.4 3.7 7.2 3.7 2 0 3.9-.7 5.5-1.9.7.1 1.4.2 2.1.2 6.7 0 11.9-5.5 11.9-12.4.1-7-5.1-12.4-11.8-12.4zM10.6 16.7c-.5 0-.9-.4-.9-.9s.4-.9.9-.9.9.4.9.9-.4.9-.9.9zm7.9.3c-.6 0-1.1-.5-1.1-1.1 0-.6.5-1.1 1.1-1.1s1.1.5 1.1 1.1c0 .6-.5 1.1-1.1 1.1zm7.8-.3c-.5 0-.9-.4-.9-.9s.4-.9.9-.9.9.4.9.9-.4.9-.9.9z"/><path fill="#5A6775" d="M7 33.7c-1.7 0-3.1-1.4-3.1-3.1s1.4-3.1 3.1-3.1c1.7 0 3.1 1.4 3.1 3.1S8.7 33.7 7 33.7zM7 29c-.9 0-1.6.7-1.6 1.6s.7 1.6 1.6 1.6c.9 0 1.6-.7 1.6-1.6S7.9 29 7 29zM1.6 34.5c-.9 0-1.5.7-1.5 1.5 0 .9.7 1.5 1.5 1.5.9 0 1.5-.7 1.5-1.5.1-.8-.6-1.5-1.5-1.5zM17.2 28.5c-3 0-5.8-1.4-7.6-3.9-5.3 0-9.5-4.4-9.5-9.8S4.4 5 9.7 5c1.7 0 3.4.5 4.9 1.4C17 2.7 21 .4 25.4.4 32.5.4 38 6.2 38 13.5c0 7.4-5.5 13.1-12.6 13.1-.8 0-1.5-.1-2.3-.2-1.7 1.4-3.8 2.1-5.9 2.1zm-6.8-5.4l.2.3c1.5 2.2 4 3.6 6.6 3.6 1.9 0 3.7-.7 5.1-1.9l.3-.2.4.1c.8.2 1.5.2 2.3.2 6.2 0 11.1-5.1 11.1-11.6S31.5 2 25.3 2c-4.1 0-7.9 2.3-9.9 5.9l-.4.7-.7-.5c-1.4-1-3-1.5-4.7-1.5-4.5 0-8.1 3.7-8.1 8.3 0 4.6 3.6 8.3 8.1 8.3l.8-.1z"/><g fill="#5A6775"><path d="M10.9 17.2c-.7 0-1.3-.6-1.3-1.3 0-.7.6-1.3 1.3-1.3.7 0 1.3.6 1.3 1.3 0 .7-.6 1.3-1.3 1.3zm0-1.6c-.2 0-.3.1-.3.3 0 .3.5.3.5 0 .1-.2-.1-.3-.2-.3zM18.6 17.2c-.7 0-1.3-.6-1.3-1.3 0-.7.6-1.3 1.3-1.3.7 0 1.3.6 1.3 1.3 0 .7-.6 1.3-1.3 1.3zm0-1.6c-.2 0-.3.1-.3.3 0 .3.5.3.5 0 .1-.2 0-.3-.2-.3zM26.4 17.2c-.7 0-1.3-.6-1.3-1.3 0-.7.6-1.3 1.3-1.3s1.3.6 1.3 1.3c-.1.7-.6 1.3-1.3 1.3zm0-1.6c-.2 0-.3.1-.3.3 0 .3.5.3.5 0 0-.2-.1-.3-.2-.3z"/></g></svg><svg viewBox="-1 -1 30.2 30.2" enable-background="new 0 0 28.2 28.2" width="30.2" height="30.2" id="ico-portal-help" y="529"><g fill="#5B6675"><path d="M14.1 28.2C6.3 28.2 0 21.9 0 14.1S6.3 0 14.1 0s14.1 6.3 14.1 14.1-6.3 14.1-14.1 14.1zm0-27C7 1.2 1.2 7 1.2 14.1 1.2 21.2 7 26.9 14 26.9c7.1 0 12.8-5.8 12.8-12.8.1-7.1-5.6-12.9-12.7-12.9zM14.1 19.9c-.6 0-1.2.5-1.2 1.2 0 .6.5 1.2 1.2 1.2.6 0 1.2-.5 1.2-1.2 0-.6-.6-1.2-1.2-1.2"/><path d="M14.1 18.8c-.3 0-.6-.3-.6-.6v-3.5c0-.3.3-.6.6-.6 1.6 0 2.9-1.3 2.9-2.9s-1.3-2.9-2.9-2.9-2.9 1.3-2.9 2.9c0 .3-.3.6-.6.6s-.6-.3-.6-.6C10 8.9 11.8 7 14.1 7s4.1 1.9 4.1 4.1c0 2.1-1.5 3.8-3.5 4.1v2.9c0 .4-.3.7-.6.7z"/></g></svg><svg viewBox="-1 -1 30.2 30.2" enable-background="new 0 0 28.2 28.2" width="30.2" height="30.2" id="ico-portal-help-active" y="560"><circle fill="#ACDEF0" cx="14.1" cy="14.1" r="13.5"/><path fill="#5B6675" d="M14.1 28.2C6.3 28.2 0 21.9 0 14.1S6.3 0 14.1 0s14.1 6.3 14.1 14.1-6.3 14.1-14.1 14.1zm0-27C7 1.2 1.2 7 1.2 14.1 1.2 21.2 7 26.9 14 26.9c7.1 0 12.8-5.8 12.8-12.8.1-7.1-5.6-12.9-12.7-12.9zM14.1 19.9c-.6 0-1.2.5-1.2 1.2 0 .6.5 1.2 1.2 1.2.6 0 1.2-.5 1.2-1.2 0-.6-.6-1.2-1.2-1.2"/><path fill="#5B6675" d="M14.1 18.8c-.3 0-.6-.3-.6-.6v-3.5c0-.3.3-.6.6-.6 1.6 0 2.9-1.3 2.9-2.9s-1.3-2.9-2.9-2.9-2.9 1.3-2.9 2.9c0 .3-.3.6-.6.6s-.6-.3-.6-.6C10 8.9 11.8 7 14.1 7s4.1 1.9 4.1 4.1c0 2.1-1.5 3.8-3.5 4.1v2.9c0 .4-.3.7-.6.7z"/></svg><svg width="33" height="33" viewBox="-1 -1 33 33" id="ico-portal-help-call" y="591"><title>Stroke 445 + Stroke 446</title><desc>Created with Sketch.</desc><g transform="translate(-913 -517) translate(914 518.5)" stroke-linecap="round" stroke="#5B6675" stroke-linejoin="round" fill="none"><path d="M11.786 10.253c.8-.8.864-2.03.145-2.75L9.978 5.55c-.72-.72-1.95-.655-2.75.144l-1.19 1.19c-1.032 1.033-1.265 2.572-.56 3.69C8.5 15.367 12.654 19.52 17.45 22.545c1.114.704 2.657.47 3.688-.56l1.19-1.19c.8-.8.865-2.03.145-2.75L20.52 16.09c-.72-.72-1.95-.654-2.75.144l-.724.724c-2.163-1.734-4.25-3.82-5.983-5.983l.723-.724z"/><path d="M21.587 21.565c.63.63 1.968 6.935-7.565 6.935-8.01 0-14.5-6.492-14.5-14.5 0-8.01 6.49-14.5 14.5-14.5 8.008 0 14.5 6.49 14.5 14.5 0 3.04-.936 5.864-2.537 8.195"/></g></svg><svg width="32" height="30" viewBox="-1 -1 32 30" id="ico-portal-help-chat" y="624"><title>Stroke 348 + Stroke 349</title><desc>Created with Sketch.</desc><g transform="translate(-913 -420) translate(913 420)" stroke="#5B6675" stroke-linejoin="round" fill="none"><path d="M29.5 12.33c0 6.534-6.492 11.83-14.5 11.83-1.787 0-3.5-.263-5.08-.746L1.5 27.5l3.35-6.72C2.165 18.63.5 15.64.5 12.33.5 5.798 6.992.5 15 .5s14.5 5.297 14.5 11.83z"/><path d="M15.63 19.413s6.935-5.043 6.935-8.78c0-4.31-5.674-5.673-6.935-.43-1.26-5.243-6.935-3.88-6.935.43 0 3.737 6.935 8.78 6.935 8.78z"/></g></svg><svg width="32" height="33" viewBox="-1 -1 32 33" id="ico-portal-help-email" y="654"><title>Group</title><desc>Created with Sketch.</desc><g transform="translate(-913 -466) translate(913 467.5)" stroke-linecap="round" stroke="#5B6675" stroke-linejoin="round" fill="none"><path d="M24.5 18.5c0 1.045-.956 2-2 2h-15c-1.044 0-2-.955-2-2v-9c0-1.043.956-2 2-2h15c1.044 0 2 .957 2 2v9z"/><path d="M22 9.5L15 15 8 9.5"/><path d="M22 17.5l-5.09-4"/><path d="M8 17.5l5.09-4"/><path d="M29.5 14c0 8.01-6.492 14.5-14.5 14.5S.5 22.01.5 14C.5 5.994 6.992-.5 15-.5S29.5 5.994 29.5 14z"/></g></svg><svg viewBox="-1 -1 26 26" enable-background="new 0 0 24 24" width="26" height="26" id="ico-portal-info" y="687"><title>info 3</title><desc>Created with Sketch.</desc><path fill="#AEBCCE" d="M12 0C5.4 0 0 5.4 0 12s5.4 12 12 12 12-5.4 12-12S18.6 0 12 0zm0 3.8c1 0 1.8.9 1.8 1.9 0 1-.9 1.8-1.8 1.8-1 0-1.8-.8-1.8-1.8S11 3.8 12 3.8zm2.6 14.6c0 .4-.3.8-.8.8h-3.5c-.5 0-.8-.3-.8-.8v-.8c0-.4.3-.8.8-.8V12c-.5 0-.8-.4-.8-.8v-.8c0-.4.3-.8.8-.8H13c.4 0 .8.3.8.8v6.4c.5 0 .8.4.8.8v.8z"/></svg><svg width="64" height="64" viewBox="-1 -1 64 64" id="ico-portal-location" y="713"><title>Oval 10</title><desc>Created with Sketch.</desc><g transform="translate(-1325 -770)" fill="none"><ellipse fill="#fff" cx="1356" cy="801" rx="31" ry="31"/><g transform="translate(1346 785)" stroke="#231F1F" stroke-linecap="round" stroke-linejoin="round"><path d="M20 10.667c0 5.524-10 20.666-10 20.666S0 16.19 0 10.667c0-5.523 4.476-10 10-10 5.523 0 10 4.477 10 10z"/><path d="M14 10.667c0 2.21-1.792 4-4 4-2.21 0-4-1.79-4-4 0-2.208 1.79-4 4-4 2.208 0 4 1.792 4 4z"/></g></g></svg><svg width="40" height="40" viewBox="-1 -1 40 40" id="ico-portal-membership" y="777"><path fill="#5A6775" d="M19 38c-.1 0-.3 0-.4-.1-.2-.1-4.5-3-8.9-7.6C3.8 24.1.8 17.8.8 11.9.8 4.2 5.6.2 10.2.2c3.4 0 7.1 2.1 8.8 6.7C20.7 2.2 24.5 0 28 0c4.6 0 9.2 3.7 9.2 10.9 0 13-17.1 26.4-17.8 26.9-.1.1-.2.2-.4.2zM10.2 1.6c-3.8 0-7.9 3.2-7.9 10.2 0 12 14 22.5 16.7 24.4C21.7 34 35.8 22 35.8 10.8c0-6.4-4-9.4-7.7-9.4-3.2 0-7.3 2.2-8.3 8.5-.1.4-.4.6-.7.6s-.7-.3-.7-.6c-1.1-6.1-5.1-8.3-8.2-8.3z"/></svg><svg width="40" height="40" viewBox="-1 -1 40 40" id="ico-portal-membership-active" y="817"><path fill="#ACDEF0" d="M19 37c-.1 0-.3 0-.4-.1-.2-.1-4.3-2.9-8.6-7.4-5.7-6-8.7-12.1-8.7-17.8C1.4 4.3 6 .4 10.5.4c3.3 0 6.8 2 8.5 6.5C20.7 2.3 24.4.3 27.7.3c4.4 0 8.9 3.6 8.9 10.5 0 12.6-16.5 25.5-17.2 26-.1.2-.2.2-.4.2z"/><path fill="#5A6775" d="M19 38c-.1 0-.3 0-.4-.1-.2-.1-4.5-3-8.9-7.6C3.8 24.1.8 17.8.8 11.9.8 4.2 5.6.2 10.2.2c3.4 0 7.1 2.1 8.8 6.7C20.7 2.2 24.5 0 28 0c4.6 0 9.2 3.7 9.2 10.9 0 13-17.1 26.4-17.8 26.9-.1.1-.2.2-.4.2zM10.2 1.6c-3.8 0-7.9 3.2-7.9 10.2 0 12 14 22.5 16.7 24.4C21.7 34 35.8 22 35.8 10.8c0-6.4-4-9.4-7.7-9.4-3.2 0-7.3 2.2-8.3 8.5-.1.4-.4.6-.7.6s-.7-.3-.7-.6c-1.1-6.1-5.1-8.3-8.2-8.3z"/></svg><svg viewBox="-1 -1 32.2 32.3" enable-background="new 0 0 30.2 30.3" width="32.2" height="32.3" id="ico-portal-perks" y="857"><g fill="#5B6675"><path d="M29.6 8.4H.6c-.3 0-.6.3-.6.6s.3.6.6.6h29c.3 0 .6-.3.6-.6s-.2-.6-.6-.6"/><path d="M15.1 29.6l.5-.4L1.4 9.5l5.9-8.2H23l5.9 8.2-14.3 19.8.5.3.5-.4-.5.4.5.4L30.1 9.8c.2-.2.2-.5 0-.7L23.8.3c-.1-.2-.3-.3-.5-.3H6.9c-.2 0-.4.1-.5.3L.1 9.1c-.1.2-.1.5 0 .7L14.6 30c.1.2.3.3.5.3s.4-.1.5-.3l-.5-.4zM15.1 30.3c-.3 0-.5-.2-.6-.5L8.8 9.6c0-.2 0-.4.1-.5L14.4.6c.3-.5 1.1-.5 1.5 0l5.5 8.5c.1.2.1.3.1.5l-5.7 20.2c-.1.3-.4.5-.7.5zm-5-20.7l5 17.8 5-17.8-5-7.8-5 7.8zM7.5.5L10 9.3c.1.3-.1.7-.4.8h-.2c-.3 0-.5-.2-.6-.5L6.3.8M23.9.8l-2.5 8.8c-.1.3-.3.5-.6.5h-.2c-.3-.1-.5-.4-.4-.8L22.7.5M29.4 9.8H.8c-.3 0 0-.3 0-.6s-.3-.6 0-.6h28.6"/></g></svg><svg viewBox="-1 -1 32.2 32.3" enable-background="new 0 0 30.2 30.3" width="32.2" height="32.3" id="ico-portal-perks-active" y="890"><path fill="#5B6675" d="M29.6 8.4H.6c-.3 0-.6.3-.6.6s.3.6.6.6h29c.3 0 .6-.3.6-.6s-.2-.6-.6-.6"/><path fill="#ACDEF1" d="M15.1 29.6L.6 9.5 6.9.6h16.4l6.3 8.9z"/><path fill="#5B6675" d="M15.1 29.6l.5-.4L1.4 9.5l5.9-8.2H23l5.9 8.2-14.3 19.8.5.3.5-.4-.5.4.5.4L30.1 9.8c.2-.2.2-.5 0-.7L23.8.3c-.1-.2-.3-.3-.5-.3H6.9c-.2 0-.4.1-.5.3L.1 9.1c-.1.2-.1.5 0 .7L14.6 30c.1.2.3.3.5.3s.4-.1.5-.3l-.5-.4zM15.1 30.3c-.3 0-.5-.2-.6-.5L8.8 9.6c0-.2 0-.4.1-.5L14.4.6c.3-.5 1.1-.5 1.5 0l5.5 8.5c.1.2.1.3.1.5l-5.7 20.2c-.1.3-.4.5-.7.5zm-5-20.7l5 17.8 5-17.8-5-7.8-5 7.8zM7.5.5L10 9.3c.1.3-.1.7-.4.8h-.2c-.3 0-.5-.2-.6-.5L6.3.8M23.9.8l-2.5 8.8c-.1.3-.3.5-.6.5h-.2c-.3-.1-.5-.4-.4-.8L22.7.5M29.4 9.8H.8c-.3 0 0-.3 0-.6s-.3-.6 0-.6h28.6"/></svg><svg viewBox="-1 -1 48 42.2" enable-background="new 0 0 46 40.2" width="48" height="42.2" id="ico-portal-privacy" y="923"><path fill="#ACDEF1" d="M6 3.6h33c1.7 0 3 1.3 3 3v20c0 1.7-1.3 3-3 3H6c-1.7 0-3-1.3-3-3v-20c0-1.6 1.3-3 3-3z"/><path fill="#5B6675" d="M17.7 28H3.3c-2 0-3.3-1.6-3.3-4.1V4.1C0 1.6 1.3 0 3.3 0h34.9c2 0 3.3 1.6 3.3 4.1v8.4c0 .6-.4 1-1 1s-1-.4-1-1V4.1c0-.5-.1-2.1-1.3-2.1H3.3C2.1 2 2 3.6 2 4.1V24c0 .4.1 2 1.3 2h14.4c.6 0 1 .4 1 1s-.5 1-1 1zM21.1 18.1c-.2 0-.4-.1-.6-.2L1.1 2.5 2.3.9 21 15.8 39 1l1.3 1.5-18.6 15.3c-.2.2-.4.3-.6.3zM45 40.2H26.8c-.6 0-1-.4-1-1V25.5c0-.6.4-1 1-1H45c.6 0 1 .4 1 1v13.8c0 .5-.4.9-1 .9zm-17.2-2H44V26.5H27.8v11.7zM35.9 36.4c-.6 0-1-.4-1-1v-3.8c0-.6.4-1 1-1s1 .4 1 1v3.8c0 .6-.5 1-1 1zM35.9 32.4c-.9 0-1.6-.7-1.6-1.6 0-.4.1-.8.4-1.1.3-.3.7-.5 1.1-.5.9 0 1.6.7 1.6 1.6.1.9-.6 1.6-1.5 1.6zM42 26.5c-.6 0-1-.4-1-1V24c0-2.5-2.6-5.1-5.1-5.1s-5.1 2.6-5.1 5.1v1.5c0 .6-.4 1-1 1s-1-.4-1-1V24c0-3.6 3.5-7.1 7.1-7.1 3.6 0 7.1 3.5 7.1 7.1v1.5c0 .5-.5 1-1 1z"/></svg><svg viewBox="-1 -1 50.4 50.7" enable-background="new 0 0 48.4 48.7" width="50.4" height="50.7" id="ico-portal-profile" y="966"><path fill="#fff" d="M48.4 24.3c0 13.4-10.8 24.3-24.2 24.3C10.8 48.7 0 37.8 0 24.3S10.8 0 24.2 0c13.4 0 24.2 10.9 24.2 24.3"/><path fill="#ACDEF1" d="M21.6 30.8s-2.9-1-2.9-5.8c-1.6 0-1.6-3.8 0-3.8 0-.6-2.9-7.7 1.9-6.7 1-3.8 11.5-3.8 12.4 0 .7 2.7-1 6.2-1 6.7 1.6 0 1.6 3.8 0 3.8 0 4.8-2.9 5.8-2.9 5.8v4.8c4.7 1.8 9.4 3.3 11.8 4.9 3.9-4 6.3-9.5 6.3-15.5 0-12.2-9.8-22.1-22-22.1s-22 9.9-22 22.1c0 6.1 2.4 11.5 6.4 15.5 2.5-1.8 7.5-3.4 11.8-5v-4.7"/><path fill="#5B6675" d="M8.6 40.4c-.2 0-.5-.1-.6-.3C3.7 35.8 1.4 30 1.4 24c0-12.7 10.2-23 22.8-23S47 11.4 47 24.1c0 6.1-2.3 11.8-6.6 16.1-.3.3-.8.4-1.1.1-1.8-1.2-5.1-2.4-8.6-3.7-1-.4-2-.7-3.1-1.1-.3-.1-.6-.5-.6-.8v-4.8c0-.4.2-.7.6-.8.1 0 2.3-.9 2.3-4.9 0-.5.4-.9.9-.9.1 0 .3-.4.3-1s-.2-1-.3-1c-.5 0-.9-.4-.9-.9 0-.2.1-.5.3-1.1.4-1.2 1.2-3.6.7-5.4-.3-1.3-2.6-2.2-5.4-2.2-2.8 0-5 .9-5.4 2.2-.1.5-.6.7-1 .6-.2 0-.5-.1-.6-.1-.6 0-.7.2-.8.3-.7.9.1 3.6.4 4.6.2.5.2.8.2 1 0 .5-.4.9-.9.9-.1 0-.3.4-.3 1s.2 1 .3 1c.5 0 .9.4.9.9 0 4 2.2 4.9 2.3 4.9.3.1.6.5.6.8v4.8c0 .4-.2.7-.6.8-.9.4-1.9.7-2.9 1.1-3.4 1.2-6.8 2.5-8.7 3.8-.1.1-.2.1-.4.1zM24.2 2.8C12.6 2.8 3.1 12.3 3.1 24c0 5.4 2 10.5 5.6 14.4 2.1-1.3 5.4-2.5 8.5-3.6.8-.3 1.5-.6 2.3-.8v-3.7c-.9-.6-2.7-2.1-2.8-5.6-.7-.4-1.2-1.4-1.2-2.6 0-1.1.4-2 1-2.5-.4-1.6-1.3-4.6-.1-6.1.4-.5 1.1-1.1 2.4-1 1.1-2 4.2-2.8 6.8-2.8 2.8 0 6.4.9 7.1 3.5.6 2.3-.3 4.9-.7 6.4.6.5 1 1.3 1 2.5s-.5 2.2-1.2 2.6c-.2 3.6-1.9 5.1-2.8 5.6V34c.8.3 1.7.6 2.5.9 3.4 1.2 6.3 2.3 8.3 3.5 3.6-3.9 5.6-9 5.6-14.4-.1-11.6-9.6-21.2-21.2-21.2z"/></svg><svg width="11" height="17" viewBox="-1 -1 11 17" id="ico-portal-right-arrow" y="1017"><title>navigateright</title><desc>Created with Sketch.</desc><path d="M1.385 14.914l7.012-7.012L1.385.892.272 1.993 6.18 7.902l-5.908 5.91 1.113 1.102z" fill="#5B6675"/></svg><svg width="40" height="40" viewBox="-1 -1 40 40" id="ico-portal-support" y="1034"><path fill="#5A6775" d="M37.2 15.9h-1.1c-1.3-7.1-6.9-12.7-14-14V.8c0-.4-.3-.7-.7-.7h-4.8c-.4 0-.7.3-.7.7v1.1c-7.1 1.3-12.7 6.9-14 14H.8c-.4 0-.7.3-.7.7v4.8c0 .4.3.7.7.7h1.1c1.3 7.1 6.9 12.7 14 14v1.1c0 .4.3.7.7.7h4.8c.4 0 .7-.3.7-.7v-1.1c7.1-1.3 12.7-6.9 14-14h1.1c.4 0 .7-.3.7-.7v-4.8c.1-.4-.2-.7-.7-.7zm-2.6 0h-7.5c-.9-2.3-2.7-4.1-5-5V3.4c6.3 1.3 11.2 6.2 12.5 12.5zm-13.5 10c-.7.2-1.4.3-2.1.3-4 0-7.2-3.2-7.2-7.2s3.2-7.2 7.2-7.2c3.2 0 6 2.1 6.9 5.1.2.7.3 1.4.3 2.1 0 3.2-2.2 6-5.1 6.9zm-.5-24.4v9c-.5-.1-1.1-.2-1.6-.2s-1.1.1-1.6.2v-9h3.2zm-4.7 1.9v7.5c-2.3.9-4.1 2.7-5 5H3.4C4.7 9.6 9.6 4.7 15.9 3.4zm-14.4 14h9c-.1.5-.2 1.1-.2 1.6s.1 1.1.2 1.6h-9v-3.2zm1.9 4.7h7.5c.9 2.3 2.7 4.1 5 5v7.5C9.6 33.3 4.7 28.4 3.4 22.1zm14 14.4v-9c.5.1 1.1.2 1.6.2s1.1-.1 1.6-.2v9h-3.2zm4.7-1.9v-7.5c2.3-.9 4.1-2.7 5-5h7.5c-1.3 6.3-6.2 11.2-12.5 12.5zm14.4-14h-9c.1-.5.2-1.1.2-1.6s-.1-1.1-.2-1.6h9v3.2z"/></svg><svg width="40" height="40" viewBox="-1 -1 40 40" id="ico-portal-support-active" y="1074"><g fill="#ACDEF0"><path d="M21.3 11.6c2.6.7 4.7 2.7 5.5 5.3h8.6C34.3 9.7 28.5 4 21.3 3.1v8.5zM11.5 16.9c.8-2.7 3-4.7 5.8-5.4V3C9.9 3.8 4 9.6 2.9 16.9h8.6zM26.9 20.9c-.6 2.9-2.8 5.2-5.6 6v8.7c7.5-1 13.5-7.1 14.2-14.7h-8.6zM17.3 26.9c-3-.7-5.3-3.1-5.9-6H2.8c.7 7.7 6.8 13.9 14.5 14.7v-8.7z"/></g><path fill="#5A6775" d="M37.2 15.9h-1.1c-1.3-7.1-6.9-12.7-14-14V.8c0-.4-.3-.7-.7-.7h-4.8c-.4 0-.7.3-.7.7v1.1c-7.1 1.3-12.7 6.9-14 14H.8c-.4 0-.7.3-.7.7v4.8c0 .4.3.7.7.7h1.1c1.3 7.1 6.9 12.7 14 14v1.1c0 .4.3.7.7.7h4.8c.4 0 .7-.3.7-.7v-1.1c7.1-1.3 12.7-6.9 14-14h1.1c.4 0 .7-.3.7-.7v-4.8c.1-.4-.2-.7-.7-.7zm-2.6 0h-7.5c-.9-2.3-2.7-4.1-5-5V3.4c6.3 1.3 11.2 6.2 12.5 12.5zm-13.5 10c-.7.2-1.4.3-2.1.3-4 0-7.2-3.2-7.2-7.2s3.2-7.2 7.2-7.2c3.2 0 6 2.1 6.9 5.1.2.7.3 1.4.3 2.1 0 3.2-2.2 6-5.1 6.9zm-.5-24.4v9c-.5-.1-1.1-.2-1.6-.2s-1.1.1-1.6.2v-9h3.2zm-4.7 1.9v7.5c-2.3.9-4.1 2.7-5 5H3.4C4.7 9.6 9.6 4.7 15.9 3.4zm-14.4 14h9c-.1.5-.2 1.1-.2 1.6s.1 1.1.2 1.6h-9v-3.2zm1.9 4.7h7.5c.9 2.3 2.7 4.1 5 5v7.5C9.6 33.3 4.7 28.4 3.4 22.1zm14 14.4v-9c.5.1 1.1.2 1.6.2s1.1-.1 1.6-.2v9h-3.2zm4.7-1.9v-7.5c2.3-.9 4.1-2.7 5-5h7.5c-1.3 6.3-6.2 11.2-12.5 12.5zm14.4-14h-9c.1-.5.2-1.1.2-1.6s-.1-1.1-.2-1.6h9v3.2z"/></svg><svg viewBox="-1 -1 42 40" enable-background="new 0 0 40 38" width="42" height="40" id="ico-portal-warning" y="1114"><title>alert</title><desc>Created with Sketch.</desc><path fill="#F8E81C" d="M39.5 33.5L22.3 1.7C21.9.9 21 .3 20 .3c-1 0-1.9.5-2.3 1.4L.4 33.7c-.5.8-.5 1.8 0 2.6s1.3 1.3 2.3 1.3h34.7c1.5 0 2.7-1.2 2.7-2.7-.1-.5-.3-1-.6-1.4zM20 34c-1.7 0-3-1.3-3-3s1.3-3 3-3 3 1.3 3 3-1.3 3-3 3zm1.7-11c-.1.8-.9 1.6-1.7 1.6h-.1c-.8 0-1.5-.8-1.6-1.6-.7-3.5-1-7.3-1.3-10.4 0-.7.5-1.5 1.3-1.7 1.4-.2 2.2-.2 3.5 0 .8.2 1.3 1 1.2 1.7-.3 3.1-.6 6.9-1.3 10.4z"/></svg></svg>