<?xml version="1.0" encoding="utf-8"?>
<!-- Generator: Adobe Illustrator 18.0.0, SVG Export Plug-In . SVG Version: 6.00 Build 0)  -->
<!DOCTYPE svg PUBLIC "-//W3C//DTD SVG 1.1//EN" "http://www.w3.org/Graphics/SVG/1.1/DTD/svg11.dtd">
<svg version="1.1" id="Layer_1" xmlns="http://www.w3.org/2000/svg" xmlns:xlink="http://www.w3.org/1999/xlink" x="0px" y="0px"
	 viewBox="0 0 48.4 48.7" enable-background="new 0 0 48.4 48.7" xml:space="preserve">
<g>
	<path fill="#FFFFFF" d="M48.4,24.3c0,13.4-10.8,24.3-24.2,24.3C10.8,48.7,0,37.8,0,24.3S10.8,0,24.2,0C37.6,0,48.4,10.9,48.4,24.3"
		/>
	<path fill="#ACDEF1" d="M21.6,30.8c0,0-2.9-1-2.9-5.8c-1.6,0-1.6-3.8,0-3.8c0-0.6-2.9-7.7,1.9-6.7c1-3.8,11.5-3.8,12.4,0
		c0.7,2.7-1,6.2-1,6.7c1.6,0,1.6,3.8,0,3.8c0,4.8-2.9,5.8-2.9,5.8v4.8c4.7,1.8,9.4,3.3,11.8,4.9c3.9-4,6.3-9.5,6.3-15.5
		c0-12.2-9.8-22.1-22-22.1s-22,9.9-22,22.1c0,6.1,2.4,11.5,6.4,15.5c2.5-1.8,7.5-3.4,11.8-5V30.8"/>
	<path fill="#5B6675" d="M8.6,40.4c-0.2,0-0.5-0.1-0.6-0.3c-4.3-4.3-6.6-10.1-6.6-16.1c0-12.7,10.2-23,22.8-23S47,11.4,47,24.1
		c0,6.1-2.3,11.8-6.6,16.1c-0.3,0.3-0.8,0.4-1.1,0.1c-1.8-1.2-5.1-2.4-8.6-3.7c-1-0.4-2-0.7-3.1-1.1c-0.3-0.1-0.6-0.5-0.6-0.8v-4.8
		c0-0.4,0.2-0.7,0.6-0.8c0.1,0,2.3-0.9,2.3-4.9c0-0.5,0.4-0.9,0.9-0.9c0.1,0,0.3-0.4,0.3-1s-0.2-1-0.3-1c-0.5,0-0.9-0.4-0.9-0.9
		c0-0.2,0.1-0.5,0.3-1.1c0.4-1.2,1.2-3.6,0.7-5.4c-0.3-1.3-2.6-2.2-5.4-2.2c-2.8,0-5,0.9-5.4,2.2c-0.1,0.5-0.6,0.7-1,0.6
		c-0.2,0-0.5-0.1-0.6-0.1c-0.6,0-0.7,0.2-0.8,0.3c-0.7,0.9,0.1,3.6,0.4,4.6c0.2,0.5,0.2,0.8,0.2,1c0,0.5-0.4,0.9-0.9,0.9
		c-0.1,0-0.3,0.4-0.3,1s0.2,1,0.3,1c0.5,0,0.9,0.4,0.9,0.9c0,4,2.2,4.9,2.3,4.9c0.3,0.1,0.6,0.5,0.6,0.8v4.8c0,0.4-0.2,0.7-0.6,0.8
		c-0.9,0.4-1.9,0.7-2.9,1.1c-3.4,1.2-6.8,2.5-8.7,3.8C8.9,40.4,8.8,40.4,8.6,40.4z M24.2,2.8c-11.6,0-21.1,9.5-21.1,21.2
		c0,5.4,2,10.5,5.6,14.4c2.1-1.3,5.4-2.5,8.5-3.6c0.8-0.3,1.5-0.6,2.3-0.8v-3.7c-0.9-0.6-2.7-2.1-2.8-5.6c-0.7-0.4-1.2-1.4-1.2-2.6
		c0-1.1,0.4-2,1-2.5l0,0c-0.4-1.6-1.3-4.6-0.1-6.1c0.4-0.5,1.1-1.1,2.4-1c1.1-2,4.2-2.8,6.8-2.8c2.8,0,6.4,0.9,7.1,3.5
		c0.6,2.3-0.3,4.9-0.7,6.4l0,0c0.6,0.5,1,1.3,1,2.5c0,1.2-0.5,2.2-1.2,2.6c-0.2,3.6-1.9,5.1-2.8,5.6V34c0.8,0.3,1.7,0.6,2.5,0.9
		c3.4,1.2,6.3,2.3,8.3,3.5c3.6-3.9,5.6-9,5.6-14.4C45.3,12.4,35.8,2.8,24.2,2.8z"/>
</g>
</svg>
