<?xml version="1.0" encoding="UTF-8" standalone="no"?>
<svg width="31px" height="31px" viewBox="0 0 31 31" version="1.1" xmlns="http://www.w3.org/2000/svg" xmlns:xlink="http://www.w3.org/1999/xlink" xmlns:sketch="http://www.bohemiancoding.com/sketch/ns">
    <!-- Generator: Sketch 3.1 (8751) - http://www.bohemiancoding.com/sketch -->
    <title>Stroke 445 + Stroke 446</title>
    <desc>Created with Sketch.</desc>
    <defs></defs>
    <g id="Page-1" stroke="none" stroke-width="1" fill="none" fill-rule="evenodd" sketch:type="MSPage">
        <g id="D---PP---Support" sketch:type="MSArtboardGroup" transform="translate(-913.000000, -517.000000)" stroke-linecap="round" stroke="#5B6675" stroke-linejoin="round">
            <g id="Stroke-445-+-Stroke-446" sketch:type="MSLayerGroup" transform="translate(914.000000, 518.500000)">
                <path d="M11.7856,10.2529 C12.5846,9.4539 12.6496,8.2229 11.9306,7.5029 L9.9766,5.5499 C9.2576,4.8299 8.0266,4.8949 7.2276,5.6939 L6.0366,6.8849 C5.0046,7.9169 4.7716,9.4559 5.4766,10.5729 C8.5006,15.3679 12.6536,19.5219 17.4496,22.5459 C18.5636,23.2499 20.1066,23.0169 21.1376,21.9849 L22.3276,20.7949 C23.1276,19.9959 23.1926,18.7649 22.4726,18.0449 L20.5196,16.0919 C19.7996,15.3729 18.5696,15.4379 17.7696,16.2359 L17.0456,16.9599 C14.8826,15.2259 12.7966,13.1399 11.0626,10.9769 L11.7856,10.2529 L11.7856,10.2529 Z" id="Stroke-445" sketch:type="MSShapeGroup"></path>
                <path d="M21.5869,21.5654 C22.2169,22.1954 23.5549,28.5004 14.0219,28.5004 C6.0129,28.5004 -0.4781,22.0084 -0.4781,14.0004 C-0.4781,5.9914 6.0129,-0.4996 14.0219,-0.4996 C22.0299,-0.4996 28.5219,5.9914 28.5219,14.0004 C28.5219,17.0414 27.5859,19.8644 25.9849,22.1954" id="Stroke-446" sketch:type="MSShapeGroup"></path>
            </g>
        </g>
    </g>
</svg>