<?xml version="1.0" encoding="utf-8"?>
<!-- Generator: Adobe Illustrator 17.1.0, SVG Export Plug-In . SVG Version: 6.00 Build 0)  -->
<!DOCTYPE svg PUBLIC "-//W3C//DTD SVG 1.1//EN" "http://www.w3.org/Graphics/SVG/1.1/DTD/svg11.dtd">
<svg version="1.1" id="Layer_1" xmlns="http://www.w3.org/2000/svg" xmlns:xlink="http://www.w3.org/1999/xlink" x="0px" y="0px"
	 width="38px" height="38px" viewBox="0 0 38 38" enable-background="new 0 0 38 38" xml:space="preserve">
<g>
	<path fill="#5A6775" d="M7,33.7c-1.7,0-3.1-1.4-3.1-3.1s1.4-3.1,3.1-3.1c1.7,0,3.1,1.4,3.1,3.1S8.7,33.7,7,33.7z M7,29
		c-0.9,0-1.6,0.7-1.6,1.6s0.7,1.6,1.6,1.6c0.9,0,1.6-0.7,1.6-1.6S7.9,29,7,29z"/>
	<g>
		<path fill="#5A6775" d="M1.6,34.5c-0.9,0-1.5,0.7-1.5,1.5c0,0.9,0.7,1.5,1.5,1.5c0.9,0,1.5-0.7,1.5-1.5
			C3.2,35.2,2.5,34.5,1.6,34.5L1.6,34.5z"/>
	</g>
	<path fill="#5A6775" d="M17.2,28.5c-3,0-5.8-1.4-7.6-3.9c-5.3,0-9.5-4.4-9.5-9.8c0-5.4,4.3-9.8,9.6-9.8c1.7,0,3.4,0.5,4.9,1.4
		c2.4-3.7,6.4-6,10.8-6c7.1,0,12.6,5.8,12.6,13.1c0,7.4-5.5,13.1-12.6,13.1c-0.8,0-1.5-0.1-2.3-0.2C21.4,27.8,19.3,28.5,17.2,28.5z
		 M10.4,23.1l0.2,0.3c1.5,2.2,4,3.6,6.6,3.6c1.9,0,3.7-0.7,5.1-1.9l0.3-0.2L23,25c0.8,0.2,1.5,0.2,2.3,0.2c6.2,0,11.1-5.1,11.1-11.6
		c0-6.5-4.9-11.6-11.1-11.6c-4.1,0-7.9,2.3-9.9,5.9L15,8.6l-0.7-0.5c-1.4-1-3-1.5-4.7-1.5c-4.5,0-8.1,3.7-8.1,8.3
		c0,4.6,3.6,8.3,8.1,8.3L10.4,23.1z"/>
	<g>
		<path fill="#5A6775" d="M10.9,17.2c-0.7,0-1.3-0.6-1.3-1.3c0-0.7,0.6-1.3,1.3-1.3c0.7,0,1.3,0.6,1.3,1.3
			C12.2,16.6,11.6,17.2,10.9,17.2z M10.9,15.6c-0.2,0-0.3,0.1-0.3,0.3c0,0.3,0.5,0.3,0.5,0C11.2,15.7,11,15.6,10.9,15.6z"/>
		<path fill="#5A6775" d="M18.6,17.2c-0.7,0-1.3-0.6-1.3-1.3c0-0.7,0.6-1.3,1.3-1.3c0.7,0,1.3,0.6,1.3,1.3
			C19.9,16.6,19.3,17.2,18.6,17.2z M18.6,15.6c-0.2,0-0.3,0.1-0.3,0.3c0,0.3,0.5,0.3,0.5,0C18.9,15.7,18.8,15.6,18.6,15.6z"/>
		<path fill="#5A6775" d="M26.4,17.2c-0.7,0-1.3-0.6-1.3-1.3c0-0.7,0.6-1.3,1.3-1.3s1.3,0.6,1.3,1.3C27.6,16.6,27.1,17.2,26.4,17.2z
			 M26.4,15.6c-0.2,0-0.3,0.1-0.3,0.3c0,0.3,0.5,0.3,0.5,0C26.6,15.7,26.5,15.6,26.4,15.6z"/>
	</g>
</g>
</svg>
