<?xml version="1.0" encoding="utf-8"?>
<!-- Generator: Adobe Illustrator 18.0.0, SVG Export Plug-In . SVG Version: 6.00 Build 0)  -->
<!DOCTYPE svg PUBLIC "-//W3C//DTD SVG 1.1//EN" "http://www.w3.org/Graphics/SVG/1.1/DTD/svg11.dtd">
<svg version="1.1" id="Layer_1" xmlns="http://www.w3.org/2000/svg" xmlns:xlink="http://www.w3.org/1999/xlink" x="0px" y="0px"
	 viewBox="0 0 30.2 30.3" enable-background="new 0 0 30.2 30.3" xml:space="preserve">
<g>
	<path fill="#5B6675" d="M29.6,8.4h-29C0.3,8.4,0,8.7,0,9c0,0.3,0.3,0.6,0.6,0.6h29c0.3,0,0.6-0.3,0.6-0.6C30.2,8.7,30,8.4,29.6,8.4
		"/>
	<path fill="#5B6675" d="M15.1,29.6l0.5-0.4L1.4,9.5l5.9-8.2H23l5.9,8.2L14.6,29.3L15.1,29.6l0.5-0.4L15.1,29.6l0.5,0.4L30.1,9.8
		c0.2-0.2,0.2-0.5,0-0.7l-6.3-8.8C23.7,0.1,23.5,0,23.3,0H6.9C6.7,0,6.5,0.1,6.4,0.3L0.1,9.1C0,9.3,0,9.6,0.1,9.8L14.6,30
		c0.1,0.2,0.3,0.3,0.5,0.3c0.2,0,0.4-0.1,0.5-0.3L15.1,29.6z"/>
	<path fill="#5B6675" d="M15.1,30.3c-0.3,0-0.5-0.2-0.6-0.5L8.8,9.6c0-0.2,0-0.4,0.1-0.5l5.5-8.5c0.3-0.5,1.1-0.5,1.5,0l5.5,8.5
		c0.1,0.2,0.1,0.3,0.1,0.5l-5.7,20.2C15.7,30.1,15.4,30.3,15.1,30.3z M10.1,9.6l5,17.8l5-17.8l-5-7.8L10.1,9.6z"/>
	<path fill="#5B6675" d="M7.5,0.5l2.5,8.8c0.1,0.3-0.1,0.7-0.4,0.8l-0.2,0c-0.3,0-0.5-0.2-0.6-0.5L6.3,0.8"/>
	<path fill="#5B6675" d="M23.9,0.8l-2.5,8.8c-0.1,0.3-0.3,0.5-0.6,0.5l-0.2,0c-0.3-0.1-0.5-0.4-0.4-0.8l2.5-8.8"/>
	<path fill="#5B6675" d="M29.4,9.8H0.8c-0.3,0,0-0.3,0-0.6s-0.3-0.6,0-0.6h28.6"/>
</g>
</svg>
