<?xml version="1.0" encoding="utf-8"?>
<!-- Generator: Adobe Illustrator 17.1.0, SVG Export Plug-In . SVG Version: 6.00 Build 0)  -->
<!DOCTYPE svg PUBLIC "-//W3C//DTD SVG 1.1//EN" "http://www.w3.org/Graphics/SVG/1.1/DTD/svg11.dtd">
<svg version="1.1" id="Layer_1" xmlns="http://www.w3.org/2000/svg" xmlns:xlink="http://www.w3.org/1999/xlink" x="0px" y="0px"
	 width="38px" height="38px" viewBox="0 0 38 38" enable-background="new 0 0 38 38" xml:space="preserve">
<g>
	<path fill="#5A6775" d="M19,38c-0.1,0-0.3,0-0.4-0.1c-0.2-0.1-4.5-3-8.9-7.6c-5.9-6.2-8.9-12.5-8.9-18.4c0-7.7,4.8-11.7,9.4-11.7
		c3.4,0,7.1,2.1,8.8,6.7C20.7,2.2,24.5,0,28,0c4.6,0,9.2,3.7,9.2,10.9c0,13-17.1,26.4-17.8,26.9C19.3,37.9,19.2,38,19,38z M10.2,1.6
		c-3.8,0-7.9,3.2-7.9,10.2c0,12,14,22.5,16.7,24.4c2.7-2.2,16.8-14.2,16.8-25.4c0-6.4-4-9.4-7.7-9.4c-3.2,0-7.3,2.2-8.3,8.5
		c-0.1,0.4-0.4,0.6-0.7,0.6s-0.7-0.3-0.7-0.6C17.3,3.8,13.3,1.6,10.2,1.6z"/>
</g>
</svg>
