<?xml version="1.0" encoding="utf-8"?>
<!-- Generator: Adobe Illustrator 17.1.0, SVG Export Plug-In . SVG Version: 6.00 Build 0)  -->
<!DOCTYPE svg PUBLIC "-//W3C//DTD SVG 1.1//EN" "http://www.w3.org/Graphics/SVG/1.1/DTD/svg11.dtd">
<svg version="1.1" id="Layer_1" xmlns="http://www.w3.org/2000/svg" xmlns:xlink="http://www.w3.org/1999/xlink" x="0px" y="0px"
	 width="25px" height="16.7px" viewBox="17.5 11.7 25 16.7" enable-background="new 17.5 11.7 25 16.7" xml:space="preserve">
<g>
	<path fill="#5565AF" d="M42.5,26.2c0,1.2-0.9,2.1-2.1,2.1H19.6c-1.2,0-2.1-0.9-2.1-2.1V13.8c0-1.2,0.9-2.1,2.1-2.1h20.8
		c1.2,0,2.1,0.9,2.1,2.1V26.2z"/>
	<path fill="#56B1D9" d="M30,11.7"/>
	<g>
		<path fill="#EA564B" d="M30,17.2c-0.8-0.9-1.9-1.4-3.1-1.4c-2.3,0-4.2,1.9-4.2,4.2s1.9,4.2,4.2,4.2c1.2,0,2.4-0.5,3.1-1.4
			C29.3,22,29,21,29,20S29.3,18,30,17.2z"/>
		<path fill="#EA564B" d="M30,17.2C29.3,18,29,19,29,20s0.4,2,1,2.8c0.7-0.8,1-1.7,1-2.8S30.7,18,30,17.2z"/>
	</g>
	<path fill="#E9D419" d="M33.1,15.8c-1.2,0-2.4,0.5-3.1,1.4c-0.2,0.2-0.3,0.4-0.5,0.7h1c0.2,0.2,0.2,0.5,0.4,0.8h-1.7
		C29.1,19,29,19.3,29,19.6h2c0,0.1,0,0.3,0,0.4s0,0.3,0,0.4h-2c0,0.3,0.1,0.6,0.2,0.8h1.6c-0.1,0.3-0.2,0.6-0.4,0.8h-1
		c0.1,0.2,0.3,0.5,0.5,0.7c0.8,0.9,1.9,1.4,3.1,1.4c2.3,0,4.2-1.9,4.2-4.2C37.3,17.7,35.4,15.8,33.1,15.8z"/>
	<g>
		<path fill="#7684B7" d="M40.4,12.1c0.9,0,1.7,0.8,1.7,1.7v12.5c0,0.9-0.8,1.7-1.7,1.7H19.6c-0.9,0-1.7-0.7-1.7-1.7V13.8
			c0-0.9,0.8-1.7,1.7-1.7H40.4 M40.4,11.7H19.6c-1.2,0-2.1,0.9-2.1,2.1v12.5c0,1.2,0.9,2.1,2.1,2.1h20.8c1.2,0,2.1-0.9,2.1-2.1V13.8
			C42.5,12.6,41.6,11.7,40.4,11.7L40.4,11.7z"/>
	</g>
</g>
</svg>
