<?xml version="1.0" encoding="UTF-8" standalone="no"?>
<svg width="62px" height="62px" viewBox="0 0 62 62" version="1.1" xmlns="http://www.w3.org/2000/svg" xmlns:xlink="http://www.w3.org/1999/xlink" xmlns:sketch="http://www.bohemiancoding.com/sketch/ns">
    <!-- Generator: Sketch 3.1 (8751) - http://www.bohemiancoding.com/sketch -->
    <title>Oval 10</title>
    <desc>Created with Sketch.</desc>
    <defs></defs>
    <g id="Page-1" stroke="none" stroke-width="1" fill="none" fill-rule="evenodd" sketch:type="MSPage">
        <g id="D---Activity---Request-Scheduled" sketch:type="MSArtboardGroup" transform="translate(-1325.000000, -770.000000)">
            <ellipse id="Oval-10" fill="#FFFFFF" sketch:type="MSShapeGroup" cx="1356" cy="801" rx="31" ry="31"></ellipse>
            <g id="Stroke-4749-+-Stroke-4752" sketch:type="MSLayerGroup" transform="translate(1346.000000, 785.000000)" stroke="#231F1F" stroke-linecap="round" stroke-linejoin="round">
                <path d="M20.0004,10.6666667 C20.0004,16.1906667 10.0004,31.3333333 10.0004,31.3333333 C10.0004,31.3333333 0.0004,16.1906667 0.0004,10.6666667 C0.0004,5.144 4.4764,0.666666667 10.0004,0.666666667 C15.5230667,0.666666667 20.0004,5.144 20.0004,10.6666667 L20.0004,10.6666667 Z" id="Stroke-4749" sketch:type="MSShapeGroup"></path>
                <path d="M14.0004,10.6666667 C14.0004,12.876 12.2084,14.6666667 10.0004,14.6666667 C7.79106667,14.6666667 6.0004,12.876 6.0004,10.6666667 C6.0004,8.45866667 7.79106667,6.66666667 10.0004,6.66666667 C12.2084,6.66666667 14.0004,8.45866667 14.0004,10.6666667 L14.0004,10.6666667 Z" id="Stroke-4750" sketch:type="MSShapeGroup"></path>
            </g>
        </g>
    </g>
</svg>