<?xml version="1.0" encoding="utf-8"?>
<!-- Generator: Adobe Illustrator 18.0.0, SVG Export Plug-In . SVG Version: 6.00 Build 0)  -->
<!DOCTYPE svg PUBLIC "-//W3C//DTD SVG 1.1//EN" "http://www.w3.org/Graphics/SVG/1.1/DTD/svg11.dtd">
<svg version="1.1" id="Layer_1" xmlns:sketch="http://www.bohemiancoding.com/sketch/ns"
	 xmlns="http://www.w3.org/2000/svg" xmlns:xlink="http://www.w3.org/1999/xlink" x="0px" y="0px" viewBox="0 0 24 24"
	 enable-background="new 0 0 24 24" xml:space="preserve">
<title>info 3</title>
<desc>Created with Sketch.</desc>
<path fill="#AEBCCE" d="M12,0C5.4,0,0,5.4,0,12c0,6.6,5.4,12,12,12s12-5.4,12-12C24,5.4,18.6,0,12,0z M12,3.8c1,0,1.8,0.9,1.8,1.9
	c0,1-0.9,1.8-1.8,1.8c-1,0-1.8-0.8-1.8-1.8C10.2,4.7,11,3.8,12,3.8z M14.6,18.4c0,0.4-0.3,0.8-0.8,0.8h-3.5c-0.5,0-0.8-0.3-0.8-0.8
	v-0.8c0-0.4,0.3-0.8,0.8-0.8V12c-0.5,0-0.8-0.4-0.8-0.8v-0.8c0-0.4,0.3-0.8,0.8-0.8H13c0.4,0,0.8,0.3,0.8,0.8l0,6.4
	c0.5,0,0.8,0.4,0.8,0.8V18.4z"/>
</svg>
