<?xml version="1.0" encoding="utf-8"?>
<!-- Generator: Adobe Illustrator 17.1.0, SVG Export Plug-In . SVG Version: 6.00 Build 0)  -->
<!DOCTYPE svg PUBLIC "-//W3C//DTD SVG 1.1//EN" "http://www.w3.org/Graphics/SVG/1.1/DTD/svg11.dtd">
<svg version="1.1" id="Layer_1" xmlns="http://www.w3.org/2000/svg" xmlns:xlink="http://www.w3.org/1999/xlink" x="0px" y="0px"
	 width="25px" height="16.7px" viewBox="17.5 11.7 25 16.7" enable-background="new 17.5 11.7 25 16.7" xml:space="preserve">
<g>
	<g>
		<path fill="#5EC1EC" d="M42.5,26.2c0,1.2-0.9,2.1-2.1,2.1H19.6c-1.2,0-2.1-0.9-2.1-2.1V13.8c0-1.2,0.9-2.1,2.1-2.1h20.8
			c1.2,0,2.1,0.9,2.1,2.1V26.2z"/>
		<g>
			<path fill="#FFFFFF" d="M24.8,22l-0.2-0.7h-1.2L23.2,22H22l1.2-3.9h1.4l1.3,3.9H24.8z M24.4,20.5l-0.2-0.6c0-0.1-0.1-0.3-0.1-0.5
				c0-0.2-0.1-0.4-0.1-0.5c0,0.1,0,0.2-0.1,0.5c0,0.2-0.2,0.6-0.3,1.2H24.4L24.4,20.5z"/>
			<path fill="#FFFFFF" d="M28,22l-0.8-2.8h0c0,0.5,0,0.8,0,1.1V22h-0.9v-3.9h1.4l0.8,2.8h0l0.8-2.8h1.4V22h-1v-1.7
				c0-0.1,0-0.2,0-0.3c0-0.1,0-0.4,0-0.8h0L29,22L28,22L28,22z"/>
			<path fill="#FFFFFF" d="M33.8,22h-2.3v-3.9h2.3V19h-1.2v0.6h1.2v0.8h-1.2v0.8h1.2V22z"/>
			<path fill="#FFFFFF" d="M38,22h-1.2L36,20.8L35.2,22h-1.2l1.3-2l-1.2-1.9h1.2l0.7,1.2l0.7-1.2h1.2l-1.2,2L38,22z"/>
		</g>
		<g>
			<path fill="#FFFFFF" d="M24.8,22l-0.2-0.7h-1.2L23.2,22H22l1.2-3.9h1.4l1.3,3.9H24.8z M24.4,20.5l-0.2-0.6c0-0.1-0.1-0.3-0.1-0.5
				c0-0.2-0.1-0.4-0.1-0.5c0,0.1,0,0.2-0.1,0.5c0,0.2-0.2,0.6-0.3,1.2H24.4L24.4,20.5z"/>
			<path fill="#FFFFFF" d="M28,22l-0.8-2.8h0c0,0.5,0,0.8,0,1.1V22h-0.9v-3.9h1.4l0.8,2.8h0l0.8-2.8h1.4V22h-1v-1.7
				c0-0.1,0-0.2,0-0.3c0-0.1,0-0.4,0-0.8h0L29,22L28,22L28,22z"/>
			<path fill="#FFFFFF" d="M33.8,22h-2.3v-3.9h2.3V19h-1.2v0.6h1.2v0.8h-1.2v0.8h1.2V22z"/>
			<path fill="#FFFFFF" d="M38,22h-1.2L36,20.8L35.2,22h-1.2l1.3-2l-1.2-1.9h1.2l0.7,1.2l0.7-1.2h1.2l-1.2,2L38,22z"/>
		</g>
		<path fill="#56B1D9" d="M30,11.7"/>
	</g>
	<g>
		<path fill="#9BCEE0" d="M40.4,12.1c0.9,0,1.7,0.8,1.7,1.7v12.5c0,0.9-0.8,1.7-1.7,1.7H19.6c-0.9,0-1.7-0.7-1.7-1.7V13.8
			c0-0.9,0.8-1.7,1.7-1.7H40.4 M40.4,11.7H19.6c-1.2,0-2.1,0.9-2.1,2.1v12.5c0,1.2,0.9,2.1,2.1,2.1h20.8c1.2,0,2.1-0.9,2.1-2.1V13.8
			C42.5,12.6,41.6,11.7,40.4,11.7L40.4,11.7z"/>
	</g>
</g>
</svg>
