<?xml version="1.0" encoding="UTF-8" standalone="no"?>
<svg width="30px" height="31px" viewBox="0 0 30 31" version="1.1" xmlns="http://www.w3.org/2000/svg" xmlns:xlink="http://www.w3.org/1999/xlink" xmlns:sketch="http://www.bohemiancoding.com/sketch/ns">
    <!-- Generator: Sketch 3.1 (8751) - http://www.bohemiancoding.com/sketch -->
    <title>Group</title>
    <desc>Created with Sketch.</desc>
    <defs></defs>
    <g id="Page-1" stroke="none" stroke-width="1" fill="none" fill-rule="evenodd" sketch:type="MSPage">
        <g id="D---PP---Support" sketch:type="MSArtboardGroup" transform="translate(-913.000000, -466.000000)" stroke-linecap="round" stroke="#5B6675" stroke-linejoin="round">
            <g id="Group" sketch:type="MSLayerGroup" transform="translate(913.000000, 467.500000)">
                <path d="M24.5,18.501 C24.5,19.545 23.544,20.501 22.5,20.501 L7.5,20.501 C6.456,20.501 5.5,19.545 5.5,18.501 L5.5,9.501 C5.5,8.457 6.456,7.501 7.5,7.501 L22.5,7.501 C23.544,7.501 24.5,8.457 24.5,9.501 L24.5,18.501 L24.5,18.501 Z" id="Stroke-3894" sketch:type="MSShapeGroup"></path>
                <path d="M22,9.501 L15,15.001 L8,9.501" id="Stroke-3895" sketch:type="MSShapeGroup"></path>
                <path d="M22,17.501 L16.909,13.501" id="Stroke-3896" sketch:type="MSShapeGroup"></path>
                <path d="M8,17.501 L13.091,13.501" id="Stroke-3897" sketch:type="MSShapeGroup"></path>
                <path d="M29.5,14.001 C29.5,22.009 23.008,28.501 15,28.501 C6.992,28.501 0.5,22.009 0.5,14.001 C0.5,5.993 6.992,-0.499 15,-0.499 C23.008,-0.499 29.5,5.993 29.5,14.001 L29.5,14.001 Z" id="Stroke-3898" sketch:type="MSShapeGroup"></path>
            </g>
        </g>
    </g>
</svg>