<?xml version="1.0" encoding="utf-8"?>
<!-- Generator: Adobe Illustrator 17.1.0, SVG Export Plug-In . SVG Version: 6.00 Build 0)  -->
<!DOCTYPE svg PUBLIC "-//W3C//DTD SVG 1.1//EN" "http://www.w3.org/Graphics/SVG/1.1/DTD/svg11.dtd">
<svg version="1.1" id="Layer_1" xmlns="http://www.w3.org/2000/svg" xmlns:xlink="http://www.w3.org/1999/xlink" x="0px" y="0px"
	 width="38px" height="38px" viewBox="0 0 38 38" enable-background="new 0 0 38 38" xml:space="preserve">
<path fill="#5A6775" d="M37.2,15.9h-1.1c-1.3-7.1-6.9-12.7-14-14V0.8c0-0.4-0.3-0.7-0.7-0.7h-4.8c-0.4,0-0.7,0.3-0.7,0.7v1.1
	c-7.1,1.3-12.7,6.9-14,14H0.8c-0.4,0-0.7,0.3-0.7,0.7v4.8c0,0.4,0.3,0.7,0.7,0.7h1.1c1.3,7.1,6.9,12.7,14,14v1.1
	c0,0.4,0.3,0.7,0.7,0.7h4.8c0.4,0,0.7-0.3,0.7-0.7v-1.1c7.1-1.3,12.7-6.9,14-14h1.1c0.4,0,0.7-0.3,0.7-0.7v-4.8
	C38,16.2,37.7,15.9,37.2,15.9z M34.6,15.9h-7.5c-0.9-2.3-2.7-4.1-5-5V3.4C28.4,4.7,33.3,9.6,34.6,15.9z M21.1,25.9
	C21.1,25.9,21.1,25.9,21.1,25.9c-0.7,0.2-1.4,0.3-2.1,0.3c-4,0-7.2-3.2-7.2-7.2s3.2-7.2,7.2-7.2c3.2,0,6,2.1,6.9,5.1c0,0,0,0,0,0
	c0.2,0.7,0.3,1.4,0.3,2.1C26.2,22.2,24,25,21.1,25.9z M20.6,1.5v9c-0.5-0.1-1.1-0.2-1.6-0.2s-1.1,0.1-1.6,0.2v-9H20.6z M15.9,3.4
	v7.5c-2.3,0.9-4.1,2.7-5,5H3.4C4.7,9.6,9.6,4.7,15.9,3.4z M1.5,17.4h9c-0.1,0.5-0.2,1.1-0.2,1.6s0.1,1.1,0.2,1.6h-9V17.4z M3.4,22.1
	h7.5c0.9,2.3,2.7,4.1,5,5v7.5C9.6,33.3,4.7,28.4,3.4,22.1z M17.4,36.5v-9c0.5,0.1,1.1,0.2,1.6,0.2s1.1-0.1,1.6-0.2v9H17.4z
	 M22.1,34.6v-7.5c2.3-0.9,4.1-2.7,5-5h7.5C33.3,28.4,28.4,33.3,22.1,34.6z M36.5,20.6h-9c0.1-0.5,0.2-1.1,0.2-1.6s-0.1-1.1-0.2-1.6
	h9V20.6z"/>
</svg>
