<?xml version="1.0" encoding="utf-8"?>
<!-- Generator: Adobe Illustrator 17.1.0, SVG Export Plug-In . SVG Version: 6.00 Build 0)  -->
<!DOCTYPE svg PUBLIC "-//W3C//DTD SVG 1.1//EN" "http://www.w3.org/Graphics/SVG/1.1/DTD/svg11.dtd">
<svg version="1.1" id="Layer_1" xmlns="http://www.w3.org/2000/svg" xmlns:xlink="http://www.w3.org/1999/xlink" x="0px" y="0px"
	 width="38px" height="38px" viewBox="0 0 38 38" enable-background="new 0 0 38 38" xml:space="preserve">
<g>
	<path fill="#ACDEF0" d="M18.9,0.6C8.7,0.6,0.4,8.8,0.4,19s8.3,18.4,18.4,18.4c10.2,0,18.4-8.3,18.4-18.4S29.1,0.6,18.9,0.6z
		 M19.1,21.5c-1.3,0-2.3-1-2.3-2.3c0-1.3,1-2.3,2.3-2.3c1.3,0,2.3,1,2.3,2.3C21.5,20.4,20.4,21.5,19.1,21.5z"/>
	<path fill="#5A6775" d="M19,38C8.5,38,0,29.5,0,19S8.5,0,19,0c10.5,0,19,8.5,19,19S29.5,38,19,38z M19,1.5C9.3,1.5,1.5,9.3,1.5,19
		S9.3,36.5,19,36.5c9.7,0,17.5-7.9,17.5-17.5S28.7,1.5,19,1.5z"/>
	<path fill="#5A6775" d="M29.2,8.9c-0.3-0.3-0.8-0.3-1.1,0l-7.4,7.4c-0.5-0.3-1-0.5-1.6-0.5c-1.7,0-3.1,1.4-3.1,3.1
		c0,1.7,1.4,3.1,3.1,3.1c1.7,0,3.1-1.4,3.1-3.1c0-0.6-0.2-1.1-0.5-1.6l7.4-7.4C29.5,9.7,29.5,9.2,29.2,8.9z M19.1,20.6
		c-0.9,0-1.6-0.7-1.6-1.6c0-0.9,0.7-1.6,1.6-1.6c0.9,0,1.6,0.7,1.6,1.6C20.8,19.9,20,20.6,19.1,20.6z"/>
	<path fill="#5A6775" d="M7.1,20H4c-0.4,0-0.7-0.3-0.7-0.7c0-0.4,0.3-0.7,0.7-0.7h3.2c0.4,0,0.7,0.3,0.7,0.7C7.9,19.7,7.5,20,7.1,20
		z"/>
	<path fill="#5A6775" d="M5.2,25.5c-0.3,0-0.6-0.2-0.7-0.5c-0.2-0.4,0-0.8,0.4-1l2.9-1.2c0.4-0.2,0.8,0,1,0.4c0.2,0.4,0,0.8-0.4,1
		l-2.9,1.2C5.4,25.5,5.3,25.5,5.2,25.5z"/>
	<path fill="#5A6775" d="M33.1,25.5c-0.1,0-0.2,0-0.3-0.1l-2.9-1.2c-0.4-0.2-0.6-0.6-0.4-1c0.2-0.4,0.6-0.6,1-0.4l2.9,1.2
		c0.4,0.2,0.6,0.6,0.4,1C33.6,25.3,33.3,25.5,33.1,25.5z"/>
	<path fill="#5A6775" d="M34.2,19.7L34.2,19.7l-3.2,0c-0.4,0-0.7-0.3-0.7-0.7c0-0.4,0.3-0.7,0.7-0.7h0l3.2,0c0.4,0,0.7,0.3,0.7,0.7
		C34.9,19.4,34.6,19.7,34.2,19.7z"/>
	<path fill="#5A6775" d="M30.1,15.2c-0.3,0-0.6-0.2-0.7-0.5c-0.2-0.4,0-0.8,0.4-1l2.9-1.2c0.4-0.2,0.8,0,1,0.4c0.2,0.4,0,0.8-0.4,1
		l-2.9,1.2C30.3,15.2,30.2,15.2,30.1,15.2z"/>
	<path fill="#5A6775" d="M23.7,8.7c-0.1,0-0.2,0-0.3-0.1c-0.4-0.2-0.6-0.6-0.4-1l1.2-2.9c0.2-0.4,0.6-0.6,1-0.4
		c0.4,0.2,0.6,0.6,0.4,1l-1.2,2.9C24.2,8.6,24,8.7,23.7,8.7z"/>
	<path fill="#5A6775" d="M19,8.1c-0.4,0-0.7-0.3-0.7-0.7V4.2c0-0.4,0.3-0.7,0.7-0.7c0.4,0,0.7,0.3,0.7,0.7v3.2
		C19.8,7.8,19.4,8.1,19,8.1z"/>
	<path fill="#5A6775" d="M14.6,8.7c-0.3,0-0.6-0.2-0.7-0.5l-1.2-2.9c-0.2-0.4,0-0.8,0.4-1c0.4-0.2,0.8,0,1,0.4l1.2,2.9
		c0.2,0.4,0,0.8-0.4,1C14.8,8.7,14.7,8.7,14.6,8.7z"/>
	<path fill="#5A6775" d="M10.7,11.3c-0.2,0-0.4-0.1-0.5-0.2L7.9,8.9c-0.3-0.3-0.3-0.8,0-1.1c0.3-0.3,0.8-0.3,1.1,0l2.2,2.2
		c0.3,0.3,0.3,0.8,0,1.1C11.1,11.3,10.9,11.3,10.7,11.3z"/>
	<path fill="#5A6775" d="M8.1,15.2c-0.1,0-0.2,0-0.3-0.1l-2.9-1.2c-0.4-0.2-0.6-0.6-0.4-1c0.2-0.4,0.6-0.6,1-0.4l2.9,1.2
		c0.4,0.2,0.6,0.6,0.4,1C8.7,15,8.4,15.2,8.1,15.2z"/>
</g>
</svg>
