<?xml version="1.0" encoding="utf-8"?>
<!-- Generator: Adobe Illustrator 17.1.0, SVG Export Plug-In . SVG Version: 6.00 Build 0)  -->
<!DOCTYPE svg PUBLIC "-//W3C//DTD SVG 1.1//EN" "http://www.w3.org/Graphics/SVG/1.1/DTD/svg11.dtd">
<svg version="1.1" id="Layer_1" xmlns="http://www.w3.org/2000/svg" xmlns:xlink="http://www.w3.org/1999/xlink" x="0px" y="0px"
	 width="25px" height="16.7px" viewBox="17.6 11.7 25 16.7" enable-background="new 17.6 11.7 25 16.7" xml:space="preserve">
<g>
	<path fill="#F0F4F9" d="M42.6,26.2c0,1.2-0.9,2.1-2.1,2.1H19.7c-1.2,0-2.1-0.9-2.1-2.1V13.8c0-1.2,0.9-2.1,2.1-2.1h20.8
		c1.2,0,2.1,0.9,2.1,2.1V26.2z"/>
</g>
<rect x="20.7" y="14.7" fill="#AEBCCE" width="3.4" height="3.3"/>
<rect x="20.7" y="20.3" fill="#AEBCCE" width="19.5" height="1.6"/>
<rect x="20.7" y="23.7" fill="#AEBCCE" width="5" height="0.9"/>
<rect x="26.6" y="23.7" fill="#AEBCCE" width="3.6" height="0.9"/>
<g>
	<g>
		<path fill="#AEBCCE" d="M40.5,12.1c0.9,0,1.7,0.8,1.7,1.7v12.5c0,0.9-0.8,1.7-1.7,1.7H19.7c-0.9,0-1.7-0.7-1.7-1.7V13.8
			c0-0.9,0.8-1.7,1.7-1.7H40.5 M40.5,11.7H19.7c-1.2,0-2.1,0.9-2.1,2.1v12.5c0,1.2,0.9,2.1,2.1,2.1h20.8c1.2,0,2.1-0.9,2.1-2.1V13.8
			C42.6,12.6,41.6,11.7,40.5,11.7L40.5,11.7z"/>
	</g>
</g>
</svg>
