<?xml version="1.0" encoding="utf-8"?>
<!-- Generator: Adobe Illustrator 17.1.0, SVG Export Plug-In . SVG Version: 6.00 Build 0)  -->
<!DOCTYPE svg PUBLIC "-//W3C//DTD SVG 1.1//EN" "http://www.w3.org/Graphics/SVG/1.1/DTD/svg11.dtd">
<svg version="1.1" id="Layer_1" xmlns="http://www.w3.org/2000/svg" xmlns:xlink="http://www.w3.org/1999/xlink" x="0px" y="0px"
	 width="25px" height="16.7px" viewBox="17.5 11.7 25 16.7" enable-background="new 17.5 11.7 25 16.7" xml:space="preserve">
<g>
	<path fill="#FFF9F0" d="M42.5,26.2c0,1.2-0.9,2.1-2.1,2.1H19.6c-1.2,0-2.1-0.9-2.1-2.1V13.8c0-1.2,0.9-2.1,2.1-2.1h20.8
		c1.2,0,2.1,0.9,2.1,2.1V26.2z"/>
	<g>
		<path fill="#414042" d="M23.8,20c0,0.4-0.1,0.8-0.4,1c-0.2,0.2-0.6,0.3-1,0.3h-0.7v-2.5h0.8c0.4,0,0.8,0.1,1,0.3
			C23.7,19.3,23.8,19.6,23.8,20z M23.2,20c0-0.5-0.2-0.8-0.7-0.8h-0.3v1.7h0.2C23,20.8,23.2,20.5,23.2,20z"/>
		<path fill="#414042" d="M24.3,21.2v-2.5h0.5v2.5H24.3z"/>
		<path fill="#414042" d="M27,20.6c0,0.2-0.1,0.4-0.2,0.5s-0.4,0.2-0.7,0.2c-0.2,0-0.5,0-0.7-0.2v-0.5c0.2,0.1,0.3,0.1,0.4,0.2
			c0.1,0,0.2,0,0.3,0s0.2,0,0.3-0.1c0,0,0.1-0.1,0.1-0.2c0,0,0-0.1,0-0.1c0,0-0.1-0.1-0.1-0.1c0,0-0.2-0.1-0.3-0.2
			c-0.2-0.1-0.2-0.1-0.3-0.2c-0.1-0.1-0.1-0.1-0.2-0.2c0-0.1-0.1-0.2-0.1-0.3c0-0.2,0.1-0.4,0.2-0.5c0.2-0.1,0.4-0.2,0.6-0.2
			c0.1,0,0.2,0,0.4,0c0.1,0,0.2,0.1,0.4,0.1l-0.2,0.4c-0.1,0-0.2-0.1-0.3-0.1s-0.2,0-0.2,0s-0.2,0-0.2,0.1c0,0-0.1,0.1-0.1,0.2
			c0,0,0,0.1,0,0.1c0,0,0,0.1,0.1,0.1c0.1,0,0.2,0.1,0.3,0.2c0.2,0.1,0.4,0.2,0.5,0.3C26.9,20.2,27,20.4,27,20.6z"/>
		<path fill="#414042" d="M28.5,19.1c-0.2,0-0.4,0.1-0.5,0.2c-0.1,0.2-0.2,0.4-0.2,0.6c0,0.6,0.2,0.8,0.6,0.8c0.2,0,0.4,0,0.7-0.1
			v0.5c-0.2,0.1-0.5,0.1-0.7,0.1c-0.4,0-0.7-0.1-0.8-0.3c-0.2-0.2-0.3-0.5-0.3-1c0-0.2,0-0.5,0.1-0.7c0.1-0.2,0.2-0.3,0.4-0.5
			c0.2-0.1,0.4-0.2,0.6-0.2c0.2,0,0.5,0,0.7,0.2l-0.2,0.4c-0.1,0-0.2-0.1-0.3-0.1C28.7,19.2,28.6,19.1,28.5,19.1z"/>
		<path fill="#414042" d="M33.5,18.8H34l-0.9,2.5h-0.6l-0.9-2.5h0.5l0.5,1.5c0,0.1,0,0.2,0.1,0.3c0,0.1,0,0.2,0,0.2
			c0-0.1,0-0.3,0.1-0.5L33.5,18.8z"/>
		<path fill="#414042" d="M35.8,21.2h-1.5v-2.5h1.5v0.4h-0.9v0.5h0.9v0.5h-0.9v0.7h0.9V21.2z"/>
		<path fill="#414042" d="M36.8,20.3v1h-0.5v-2.5H37c0.3,0,0.6,0,0.8,0.2c0.2,0.1,0.2,0.3,0.2,0.6c0,0.2,0,0.3-0.1,0.4
			c-0.1,0.1-0.2,0.2-0.3,0.3c0.4,0.6,0.6,1,0.8,1.1h-0.6l-0.6-1L36.8,20.3L36.8,20.3z M36.8,19.9H37c0.2,0,0.3,0,0.4-0.1
			c0.1,0,0.1-0.2,0.1-0.3c0-0.1,0-0.2-0.1-0.2c-0.1,0-0.2-0.1-0.4-0.1h-0.2L36.8,19.9L36.8,19.9z"/>
		<circle fill="#E6A124" cx="30.5" cy="20" r="1.2"/>
	</g>
	<path fill="#E6A124" d="M42.5,23.1v3.1c0,0.3,0,0.5-0.2,0.8c-0.1,0.2-0.2,0.5-0.5,0.7c-0.2,0.2-0.4,0.3-0.7,0.5
		c-0.2,0.1-0.5,0.2-0.8,0.2h-9.3h-9.4L42.5,23.1z"/>
	<g>
		<path fill="#F7F5F2" d="M40.4,12.1c0.9,0,1.7,0.8,1.7,1.7v12.5c0,0.9-0.8,1.7-1.7,1.7H19.6c-0.9,0-1.7-0.7-1.7-1.7V13.8
			c0-0.9,0.8-1.7,1.7-1.7H40.4 M40.4,11.7H19.6c-1.1,0-2.1,0.9-2.1,2.1v12.5c0,1.2,0.9,2.1,2.1,2.1h20.8c1.2,0,2.1-0.9,2.1-2.1V13.8
			C42.5,12.6,41.6,11.7,40.4,11.7L40.4,11.7z"/>
	</g>
</g>
</svg>
