<?xml version="1.0" encoding="utf-8"?>
<!-- Generator: Adobe Illustrator 17.1.0, SVG Export Plug-In . SVG Version: 6.00 Build 0)  -->
<!DOCTYPE svg PUBLIC "-//W3C//DTD SVG 1.1//EN" "http://www.w3.org/Graphics/SVG/1.1/DTD/svg11.dtd">
<svg version="1.1" id="Layer_1" xmlns="http://www.w3.org/2000/svg" xmlns:xlink="http://www.w3.org/1999/xlink" x="0px" y="0px"
	 width="38px" height="38px" viewBox="0 0 38 38" enable-background="new 0 0 38 38" xml:space="preserve">
<g>
	<path fill="#5A6775" d="M27.7,0H10.3C8.1,0,6.3,1.8,6.3,3.9v30.2c0,2.2,1.8,3.9,3.9,3.9h17.5c2.2,0,3.9-1.8,3.9-3.9V3.9
		C31.7,1.8,29.9,0,27.7,0z M7.8,7.8h22.3v22.3H7.8V7.8z M10.3,1.5h17.5c1.3,0,2.4,1.1,2.4,2.4v2.4H7.8V3.9C7.8,2.6,8.9,1.5,10.3,1.5
		z M27.7,36.5H10.3c-1.3,0-2.4-1.1-2.4-2.4v-2.4h22.3v2.4C30.2,35.4,29.1,36.5,27.7,36.5z"/>
	<circle fill="#5A6775" cx="19" cy="34.1" r="1.6"/>
	<path fill="#5A6775" d="M15,4.7H23c0.4,0,0.8-0.3,0.8-0.8S23.4,3.2,23,3.2H15c-0.4,0-0.8,0.3-0.8,0.8S14.6,4.7,15,4.7z"/>
</g>
</svg>
