<?xml version="1.0" encoding="utf-8"?>
<!-- Generator: Adobe Illustrator 17.1.0, SVG Export Plug-In . SVG Version: 6.00 Build 0)  -->
<!DOCTYPE svg PUBLIC "-//W3C//DTD SVG 1.1//EN" "http://www.w3.org/Graphics/SVG/1.1/DTD/svg11.dtd">
<svg version="1.1" id="Layer_1" xmlns="http://www.w3.org/2000/svg" xmlns:xlink="http://www.w3.org/1999/xlink" x="0px" y="0px"
	 width="25px" height="16.7px" viewBox="17.5 11.7 25 16.7" enable-background="new 17.5 11.7 25 16.7" xml:space="preserve">
<g>
	<path fill="#F3F4F4" d="M42.5,26.2c0,1.2-0.9,2.1-2.1,2.1H19.6c-1.2,0-2.1-0.9-2.1-2.1V13.8c0-1.2,0.9-2.1,2.1-2.1h20.8
		c1.2,0,2.1,0.9,2.1,2.1V26.2z"/>
	<path fill="#5565AF" d="M17.9,15.8v-2.1c0-1.2,0.9-1.8,2.1-1.8h20c1.2,0,2.1,0.6,2.1,1.8v2.1"/>
	<path fill="#E6A124" d="M42.1,24.2v2.1c0,1.2-0.9,1.7-2.1,1.7H20c-1.2,0-2.1-0.5-2.1-1.7v-2.1"/>
	<g>
		<path fill="#5565AF" d="M24.8,21.4c0.2-0.5,0.3-0.8,0.4-0.9l1.4-2.9h1l-2.4,4.8h-1.1l-0.4-4.8h1l0.2,2.9c0,0.1,0,0.2,0,0.4
			C24.8,21.1,24.8,21.3,24.8,21.4L24.8,21.4z"/>
		<path fill="#5565AF" d="M27.1,22.4l1-4.8h1l-1,4.8H27.1z"/>
		<path fill="#5565AF" d="M32.2,21c0,0.5-0.2,0.8-0.5,1.1c-0.3,0.2-0.7,0.4-1.3,0.4c-0.5,0-0.9-0.1-1.2-0.3v-0.9
			c0.4,0.2,0.8,0.3,1.2,0.3c0.2,0,0.4,0,0.6-0.1c0.3-0.2,0.2-0.6,0-0.8c0,0-0.2-0.2-0.4-0.3c-0.3-0.2-0.5-0.4-0.6-0.6
			c-0.1-0.2-0.2-0.4-0.2-0.7c0-0.3,0.1-0.5,0.2-0.8c0.1-0.2,0.3-0.4,0.6-0.5s0.5-0.2,0.9-0.2c0.5,0,0.9,0.1,1.3,0.3l-0.4,0.8
			c-0.3-0.2-0.7-0.2-0.9-0.2c-0.2,0-0.3,0-0.5,0.2c-0.2,0.2-0.2,0.5-0.1,0.8c0.1,0.1,0.2,0.2,0.5,0.4c0.2,0.2,0.5,0.4,0.6,0.6
			C32.1,20.5,32.2,20.7,32.2,21z"/>
		<path fill="#5565AF" d="M35.3,21.2h-1.5l-0.5,1.1h-1l2.5-4.8h1.2l0.5,4.8h-1L35.3,21.2z M35.3,20.4l-0.1-1.1c0-0.3,0-0.5,0-0.8
			v-0.1c-0.1,0.2-0.2,0.5-0.4,0.8l-0.6,1.2H35.3z"/>
	</g>
	<path fill="#FFFFFF" d="M30,11.7"/>
	<g>
		<path fill="#F8F8F9" d="M40.4,12.1c0.9,0,1.7,0.8,1.7,1.7v12.5c0,0.9-0.8,1.7-1.7,1.7H19.6c-0.9,0-1.7-0.7-1.7-1.7V13.8
			c0-0.9,0.8-1.7,1.7-1.7H40.4 M40.4,11.7H19.6c-1.2,0-2.1,0.9-2.1,2.1v12.5c0,1.2,0.9,2.1,2.1,2.1h20.8c1.2,0,2.1-0.9,2.1-2.1V13.8
			C42.5,12.6,41.6,11.7,40.4,11.7L40.4,11.7z"/>
	</g>
</g>
</svg>
