<?xml version="1.0" encoding="utf-8"?>
<!-- Generator: Adobe Illustrator 18.0.0, SVG Export Plug-In . SVG Version: 6.00 Build 0)  -->
<!DOCTYPE svg PUBLIC "-//W3C//DTD SVG 1.1//EN" "http://www.w3.org/Graphics/SVG/1.1/DTD/svg11.dtd">
<svg version="1.1" id="Layer_1" xmlns="http://www.w3.org/2000/svg" xmlns:xlink="http://www.w3.org/1999/xlink" x="0px" y="0px"
	 viewBox="0 0 28.2 28.2" enable-background="new 0 0 28.2 28.2" xml:space="preserve">
<g>
	<path fill="#5B6675" d="M14.1,28.2C6.3,28.2,0,21.9,0,14.1C0,6.3,6.3,0,14.1,0s14.1,6.3,14.1,14.1C28.2,21.9,21.9,28.2,14.1,28.2z
		 M14.1,1.2C7,1.2,1.2,7,1.2,14.1c0,7.1,5.8,12.8,12.8,12.8c7.1,0,12.8-5.8,12.8-12.8C26.9,7,21.2,1.2,14.1,1.2z"/>
	<path fill="#5B6675" d="M14.1,19.9c-0.6,0-1.2,0.5-1.2,1.2c0,0.6,0.5,1.2,1.2,1.2c0.6,0,1.2-0.5,1.2-1.2
		C15.3,20.5,14.7,19.9,14.1,19.9"/>
	<path fill="#5B6675" d="M14.1,18.8c-0.3,0-0.6-0.3-0.6-0.6v-3.5c0-0.3,0.3-0.6,0.6-0.6c1.6,0,2.9-1.3,2.9-2.9s-1.3-2.9-2.9-2.9
		s-2.9,1.3-2.9,2.9c0,0.3-0.3,0.6-0.6,0.6S10,11.5,10,11.2C10,8.9,11.8,7,14.1,7c2.3,0,4.1,1.9,4.1,4.1c0,2.1-1.5,3.8-3.5,4.1v2.9
		C14.7,18.5,14.4,18.8,14.1,18.8z"/>
</g>
</svg>
