<?xml version="1.0" encoding="utf-8"?>
<!-- Generator: Adobe Illustrator 18.0.0, SVG Export Plug-In . SVG Version: 6.00 Build 0)  -->
<!DOCTYPE svg PUBLIC "-//W3C//DTD SVG 1.1//EN" "http://www.w3.org/Graphics/SVG/1.1/DTD/svg11.dtd">
<svg version="1.1" id="Layer_1" xmlns:sketch="http://www.bohemiancoding.com/sketch/ns"
	 xmlns="http://www.w3.org/2000/svg" xmlns:xlink="http://www.w3.org/1999/xlink" x="0px" y="0px" viewBox="0 0 40 38"
	 enable-background="new 0 0 40 38" xml:space="preserve">
<title>alert</title>
<desc>Created with Sketch.</desc>
<path fill="#F8E81C" d="M39.5,33.5L22.3,1.7C21.9,0.9,21,0.3,20,0.3c-1,0-1.9,0.5-2.3,1.4l-17.3,32c-0.5,0.8-0.5,1.8,0,2.6
	c0.5,0.8,1.3,1.3,2.3,1.3h34.7c1.5,0,2.7-1.2,2.7-2.7C40,34.4,39.8,33.9,39.5,33.5z M20,34c-1.7,0-3-1.3-3-3s1.3-3,3-3
	c1.7,0,3,1.3,3,3S21.7,34,20,34z M21.7,23c-0.1,0.8-0.9,1.6-1.7,1.6h-0.1c-0.8,0-1.5-0.8-1.6-1.6c-0.7-3.5-1-7.3-1.3-10.4
	c0-0.7,0.5-1.5,1.3-1.7c1.4-0.2,2.2-0.2,3.5,0c0.8,0.2,1.3,1,1.2,1.7C22.7,15.7,22.4,19.5,21.7,23z"/>
</svg>
