<?xml version="1.0" encoding="utf-8"?>
<!-- Generator: Adobe Illustrator 18.0.0, SVG Export Plug-In . SVG Version: 6.00 Build 0)  -->
<!DOCTYPE svg PUBLIC "-//W3C//DTD SVG 1.1//EN" "http://www.w3.org/Graphics/SVG/1.1/DTD/svg11.dtd">
<svg version="1.1" id="Layer_1" xmlns="http://www.w3.org/2000/svg" xmlns:xlink="http://www.w3.org/1999/xlink" x="0px" y="0px"
	 viewBox="0 0 46 40.2" enable-background="new 0 0 46 40.2" xml:space="preserve">
<g>
	<path fill="#ACDEF1" d="M6,3.6h33c1.7,0,3,1.3,3,3v20c0,1.7-1.3,3-3,3H6c-1.7,0-3-1.3-3-3v-20C3,5,4.3,3.6,6,3.6z"/>
	<path fill="#5B6675" d="M17.7,28H3.3c-2,0-3.3-1.6-3.3-4.1V4.1C0,1.6,1.3,0,3.3,0h34.9c2,0,3.3,1.6,3.3,4.1v8.4c0,0.6-0.4,1-1,1
		s-1-0.4-1-1V4.1c0-0.5-0.1-2.1-1.3-2.1H3.3C2.1,2,2,3.6,2,4.1v19.9C2,24.4,2.1,26,3.3,26h14.4c0.6,0,1,0.4,1,1S18.2,28,17.7,28z"/>
	<path fill="#5B6675" d="M21.1,18.1c-0.2,0-0.4-0.1-0.6-0.2L1.1,2.5l1.2-1.6l18.7,14.9l18-14.8l1.3,1.5L21.7,17.8
		C21.5,18,21.3,18.1,21.1,18.1z"/>
	<path fill="#5B6675" d="M45,40.2H26.8c-0.6,0-1-0.4-1-1V25.5c0-0.6,0.4-1,1-1H45c0.6,0,1,0.4,1,1v13.8C46,39.8,45.6,40.2,45,40.2z
		 M27.8,38.2H44V26.5H27.8V38.2z"/>
	<path fill="#5B6675" d="M35.9,36.4c-0.6,0-1-0.4-1-1v-3.8c0-0.6,0.4-1,1-1s1,0.4,1,1v3.8C36.9,36,36.4,36.4,35.9,36.4z"/>
	<path fill="#5B6675" d="M35.9,32.4c-0.9,0-1.6-0.7-1.6-1.6c0-0.4,0.1-0.8,0.4-1.1c0.3-0.3,0.7-0.5,1.1-0.5h0c0.9,0,1.6,0.7,1.6,1.6
		C37.5,31.7,36.8,32.4,35.9,32.4L35.9,32.4z"/>
	<path fill="#5B6675" d="M42,26.5c-0.6,0-1-0.4-1-1v-1.5c0-2.5-2.6-5.1-5.1-5.1s-5.1,2.6-5.1,5.1v1.5c0,0.6-0.4,1-1,1s-1-0.4-1-1
		v-1.5c0-3.6,3.5-7.1,7.1-7.1c3.6,0,7.1,3.5,7.1,7.1v1.5C43,26,42.5,26.5,42,26.5z"/>
</g>
</svg>
