<?xml version="1.0" encoding="utf-8"?>
<!-- Generator: Adobe Illustrator 17.1.0, SVG Export Plug-In . SVG Version: 6.00 Build 0)  -->
<!DOCTYPE svg PUBLIC "-//W3C//DTD SVG 1.1//EN" "http://www.w3.org/Graphics/SVG/1.1/DTD/svg11.dtd">
<svg version="1.1" id="Layer_1" xmlns="http://www.w3.org/2000/svg" xmlns:xlink="http://www.w3.org/1999/xlink" x="0px" y="0px"
	 width="38px" height="38px" viewBox="0 0 38 38" enable-background="new 0 0 38 38" xml:space="preserve">
<g>
	<path fill="#ACDEF0" d="M27.7,2.9c2,1.4,4.3,3.4,4.9,4.1l-0.9,2.6l-3.1,2.8l-1.8,0l-2.5,0.7l-0.7,1l1.1,2.9l0.8,0.6l1.6-0.5
		l0.6,1.3l-3.8,5.1l1.5,1.6l-3,2.6l-0.7,2.2l-3.5,1.5L17,31.3l-2-3.7l1-1.8l-0.5-1.8l-1.2-1.7l-0.7-1.7h-2.9l-2.9-0.9L7.3,16
		l1.8-4.1l3.5-1l1.8,0.5l1.7,1l2.6,0l2.6-0.5l0.4-1.3l-0.2-2.1L21,7.2l-1.4,0.2l-1.7-0.8l-0.1-2l2.2-1.6l4.6-1.6
		c-1.8-0.6-3.6-0.9-5.6-0.9c-10,0-18.2,8.1-18.2,18.2S8.9,37,18.9,37s18.2-8.1,18.2-18.2C37.1,12,33.3,6,27.7,2.9z"/>
	<path fill="#5A6775" d="M33.1,6.4C33,6.3,33,6.2,32.8,6.1c-2.2-2.4-5.1-4.3-8.3-5.2c0,0,0,0-0.1,0c-1.7-0.5-3.6-0.8-5.4-0.8
		C8.6,0.1,0.1,8.6,0.1,19c0,10.4,8.5,18.9,18.9,18.9S37.9,29.4,37.9,19C37.9,14.2,36.1,9.7,33.1,6.4z M31.6,7
		c-0.3,1-1.1,3.7-3.2,4.9c-2.8-0.6-5.5,1-6.1,1.7c-0.4,0.4-0.2,0.8-0.2,1c0.1,0.3,0.3,0.4,0.6,0.5c0.3,0.3,0.7,1.5,1,2.6
		c0,0.1,0.1,0.3,0.2,0.3c0.8,0.8,1.9,0.6,2.6,0.4c0.2,0.9-1.1,2.2-2.3,3.5c-0.9,0.9-1.3,1.4-1.3,1.9c0,0.6,0.5,1,0.8,1.3
		c0.1,0.1,0.3,0.3,0.4,0.3c0,0,0,0.1-0.2,0.2c-1,1-2.1,1.4-2.1,1.4c-0.3,0.1-0.5,0.4-0.5,0.7c0,2.1-1.3,3.2-3.9,3.2
		c-0.5-0.4-1.7-2.6-1.7-3.2c0-0.2,0.2-0.5,0.3-0.9c0.2-0.4,0.5-0.9,0.5-1.5c0-0.9-1-2.1-1.6-2.7c0-1-0.3-1.7-0.8-2.2
		c-0.9-0.8-2.2-0.8-3.5-0.7c-0.4,0-0.8,0-1.2,0c-1.6,0-1.6-2.3-1.6-2.4c0,0,0.1-4.9,3.4-5.6c2.4-0.5,3,0,3.1,0.1
		c0,0.2,0.1,0.4,0.2,0.5c1.4,1.4,3.5,0.9,5.2,0.5c0.6-0.1,1.2-0.3,1.6-0.3c0.4,0,0.7-0.3,0.7-0.6c0.3-2.1,0.4-4.7-0.6-5.5
		c-0.4-0.3-0.8-0.3-1.3-0.1c-0.6,0.3-1.1,0.3-1.5,0.1c-0.4-0.2-0.5-0.7-0.6-1.1c-0.1-1.1,3.4-2.5,6.1-3.1C27.1,3.3,29.6,4.9,31.6,7z
		 M19,36.4C9.4,36.4,1.6,28.6,1.6,19C1.6,9.4,9.4,1.6,19,1.6c0.7,0,1.4,0.1,2.2,0.1c-2.2,0.8-4.7,2.1-4.5,3.9c0.1,1,0.6,1.9,1.3,2.3
		c0.8,0.4,1.7,0.4,2.7,0c0.2,0.5,0.2,1.9,0,3.3c-0.4,0.1-0.8,0.2-1.3,0.3c-1.3,0.3-2.9,0.7-3.7,0c-0.1-0.2-0.2-0.5-0.5-0.8
		c-0.8-0.7-2.2-0.8-4.2-0.4c-4.5,0.9-4.6,6.8-4.6,7.1c0,1.4,0.7,3.9,3.1,3.9c0.4,0,0.8,0,1.3,0c1-0.1,2-0.1,2.4,0.3
		c0.2,0.2,0.4,0.7,0.4,1.4c0,0.2,0.1,0.4,0.2,0.5c0.7,0.7,1.3,1.6,1.4,1.8c0,0.2-0.2,0.5-0.3,0.9c-0.2,0.4-0.5,0.9-0.5,1.5
		c0,0.9,1.7,4.7,3.1,4.7c3.3,0,5.3-1.5,5.5-4.2c0.5-0.2,1.3-0.7,2.2-1.6c0.4-0.4,0.6-0.8,0.6-1.3c0-0.7-0.5-1.1-0.9-1.4
		c-0.1-0.1-0.2-0.1-0.2-0.2c0.2-0.2,0.5-0.6,0.8-0.9c1.5-1.5,3.9-4.1,2.1-6c-0.2-0.2-0.6-0.3-0.9-0.1c-0.3,0.2-1,0.4-1.4,0.2
		c-0.4-1.5-0.8-2.4-1.2-2.9c0.9-0.5,2.6-1.1,4.3-0.7c0.2,0,0.4,0,0.5-0.1c2.3-1.1,3.4-3.5,4-5c2.3,3,3.7,6.6,3.7,10.7
		C36.4,28.6,28.6,36.4,19,36.4z"/>
</g>
</svg>
