<?xml version="1.0" encoding="utf-8"?>
<!-- Generator: Adobe Illustrator 17.1.0, SVG Export Plug-In . SVG Version: 6.00 Build 0)  -->
<!DOCTYPE svg PUBLIC "-//W3C//DTD SVG 1.1//EN" "http://www.w3.org/Graphics/SVG/1.1/DTD/svg11.dtd">
<svg version="1.1" id="Layer_1" xmlns="http://www.w3.org/2000/svg" xmlns:xlink="http://www.w3.org/1999/xlink" x="0px" y="0px"
	 width="38px" height="38px" viewBox="0 0 38 38" enable-background="new 0 0 38 38" xml:space="preserve">
<path fill="#ACDEF0" d="M36.5,16.1h-4.4c-0.3-1.2-0.7-2.6-1.2-3.6L34,9.4c0.1-0.1,0.2-0.3,0.2-0.5S34.1,8.5,34,8.4l-4.3-4.3
	c-0.3-0.3-0.7-0.3-1,0l-3.1,3.1c-1-0.5-2.4-0.9-3.6-1.2V1.6c0-0.4-0.3-0.7-0.7-0.7h-4.5c-0.4,0-0.7,0.3-0.7,0.7V6
	c-1.2,0.3-2.6,0.7-3.6,1.2L9.4,4.1c-0.3-0.3-0.7-0.3-1,0L4.1,8.4c-0.3,0.3-0.3,0.7,0,1l3.1,3.1c-0.5,1-0.9,2.4-1.2,3.6H1.6
	c-0.4,0-0.7,0.3-0.7,0.7v4.5c0,0.4,0.3,0.7,0.7,0.7H6c0.3,1.2,0.7,2.6,1.2,3.6l-3.1,3.1c-0.1,0.1-0.2,0.3-0.2,0.5
	c0,0.2,0.1,0.4,0.2,0.5L8.4,34c0.3,0.3,0.7,0.3,1,0l3.1-3.1c1,0.5,2.4,0.9,3.6,1.2v4.4c0,0.4,0.3,0.7,0.7,0.7h4.5
	c0.4,0,0.7-0.3,0.7-0.7v-4.4c1.2-0.3,2.6-0.7,3.6-1.2l3.1,3.1c0.3,0.3,0.7,0.3,1,0l4.3-4.3c0.3-0.3,0.3-0.7,0-1l-3.1-3.1
	c0.5-1,0.9-2.4,1.2-3.6h4.4c0.4,0,0.7-0.3,0.7-0.7v-4.5C37.2,16.4,36.9,16.1,36.5,16.1z M19,25.9c-3.9,0-7-3.1-7-7c0-3.9,3.1-7,7-7
	s7,3.1,7,7C26,22.7,22.9,25.9,19,25.9z"/>
<g>
	<path fill="#5A6775" d="M21.4,38h-4.8c-0.4,0-0.8-0.3-0.8-0.8v-4.6c-1.3-0.3-2.7-0.7-3.8-1.3l-3.2,3.2c-0.3,0.3-0.8,0.3-1.1,0
		l-4.5-4.5c-0.1-0.1-0.2-0.3-0.2-0.5s0.1-0.4,0.2-0.5l3.2-3.2c-0.5-1.1-0.9-2.5-1.3-3.8H0.7c-0.4,0-0.8-0.3-0.8-0.8v-4.8
		c0-0.4,0.3-0.8,0.8-0.8h4.6c0.3-1.3,0.7-2.7,1.3-3.8L3.3,8.9C3,8.6,3,8.1,3.3,7.8l4.5-4.5C8.1,3,8.6,3,8.9,3.3l3.2,3.2
		c1.1-0.5,2.5-0.9,3.8-1.3V0.7c0-0.4,0.3-0.8,0.8-0.8h4.8c0.4,0,0.8,0.3,0.8,0.8v4.6c1.3,0.3,2.7,0.7,3.8,1.3l3.2-3.2
		c0.3-0.3,0.8-0.3,1.1,0l4.5,4.5c0.1,0.1,0.2,0.3,0.2,0.5s-0.1,0.4-0.2,0.5l-3.2,3.2c0.5,1.1,0.9,2.5,1.3,3.8h4.6
		c0.4,0,0.8,0.3,0.8,0.8v4.8c0,0.4-0.3,0.8-0.8,0.8h-4.6c-0.3,1.3-0.7,2.7-1.3,3.8l3.2,3.2c0.3,0.3,0.3,0.8,0,1.1l-4.5,4.5
		c-0.3,0.3-0.8,0.3-1.1,0l-3.2-3.2c-1.1,0.5-2.5,0.9-3.8,1.3v4.6C22.1,37.7,21.8,38,21.4,38z M17.4,36.5h3.3v-4.4
		c0-0.3,0.2-0.6,0.6-0.7c0.9-0.2,3.2-0.8,4.4-1.5c0.3-0.2,0.7-0.1,0.9,0.1l3.1,3.1l3.4-3.4L30,26.5c-0.2-0.2-0.3-0.6-0.1-0.9
		c0.7-1.2,1.3-3.5,1.5-4.4c0.1-0.3,0.4-0.6,0.7-0.6h4.4v-3.3h-4.4c-0.3,0-0.6-0.2-0.7-0.6c-0.2-0.9-0.8-3.2-1.5-4.4
		c-0.2-0.3-0.1-0.7,0.1-0.9l3.1-3.1l-3.4-3.4L26.5,8c-0.2,0.2-0.6,0.3-0.9,0.1c-1.2-0.7-3.5-1.3-4.4-1.5c-0.3-0.1-0.6-0.4-0.6-0.7
		V1.5h-3.3v4.4c0,0.3-0.2,0.6-0.6,0.7c-0.9,0.2-3.2,0.8-4.4,1.5c-0.3,0.2-0.7,0.1-0.9-0.1L8.3,4.9L4.9,8.3L8,11.4
		c0.2,0.2,0.3,0.6,0.1,0.9c-0.7,1.2-1.3,3.5-1.5,4.4c-0.1,0.3-0.4,0.6-0.7,0.6H1.5v3.3h4.4c0.3,0,0.6,0.2,0.7,0.6
		c0.2,0.9,0.8,3.2,1.5,4.4c0.2,0.3,0.1,0.7-0.1,0.9l-3.1,3.1l3.4,3.4l3.1-3.1c0.2-0.2,0.6-0.3,0.9-0.1c1.2,0.7,3.5,1.3,4.4,1.5
		c0.3,0.1,0.6,0.4,0.6,0.7V36.5z"/>
	<path fill="#5A6775" d="M19,26.9c-4.4,0-7.9-3.5-7.9-7.9c0-4.4,3.5-7.9,7.9-7.9s7.9,3.5,7.9,7.9C26.9,23.3,23.4,26.9,19,26.9z
		 M19,12.6c-3.5,0-6.4,2.9-6.4,6.4c0,3.5,2.9,6.4,6.4,6.4s6.4-2.9,6.4-6.4C25.4,15.5,22.5,12.6,19,12.6z"/>
</g>
</svg>
