<?xml version="1.0" encoding="UTF-8" standalone="no"?>
<svg width="30px" height="28px" viewBox="0 0 30 28" version="1.1" xmlns="http://www.w3.org/2000/svg" xmlns:xlink="http://www.w3.org/1999/xlink" xmlns:sketch="http://www.bohemiancoding.com/sketch/ns">
    <!-- Generator: Sketch 3.1 (8751) - http://www.bohemiancoding.com/sketch -->
    <title>Stroke 348 + Stroke 349</title>
    <desc>Created with Sketch.</desc>
    <defs></defs>
    <g id="Page-1" stroke="none" stroke-width="1" fill="none" fill-rule="evenodd" sketch:type="MSPage">
        <g id="D---PP---Support" sketch:type="MSArtboardGroup" transform="translate(-913.000000, -420.000000)" stroke="#5B6675" stroke-linejoin="round">
            <g id="Stroke-348-+-Stroke-349" sketch:type="MSLayerGroup" transform="translate(913.000000, 420.000000)">
                <path d="M29.5,12.3306 C29.5,18.8636 23.008,24.1606 15,24.1606 C13.213,24.1606 11.501,23.8966 9.92,23.4136 L1.5,27.4996 L4.85,20.7786 C2.165,18.6316 0.5,15.6396 0.5,12.3306 C0.5,5.7966 6.992,0.4996 15,0.4996 C23.008,0.4996 29.5,5.7966 29.5,12.3306 L29.5,12.3306 Z" id="Stroke-348" sketch:type="MSShapeGroup"></path>
                <path d="M15.6304,19.4131 C15.6304,19.4131 22.5654,14.3701 22.5654,10.6341 C22.5654,6.3231 16.8914,4.9601 15.6304,10.2031 C14.3694,4.9601 8.6954,6.3231 8.6954,10.6341 C8.6954,14.3701 15.6304,19.4131 15.6304,19.4131 L15.6304,19.4131 Z" id="Stroke-349" sketch:type="MSShapeGroup"></path>
            </g>
        </g>
    </g>
</svg>