<svg xmlns="http://www.w3.org/2000/svg" xmlns:xlink="http://www.w3.org/1999/xlink" version="1.1" x="0px" y="0px" width="28px" height="28px" viewBox="0 0 28 28" enable-background="new 0 0 28 28" xml:space="preserve"><g><defs><circle cx="13.9" cy="13.9" r="13.9"/></defs><clipPath><use xlink:href="#SVGID_1_" overflow="visible"/></clipPath></g><g><path fill="#CED7E4" d="M11.3 19.4v-3.2c0 0-1.6-1.1-1.6-3.2c-0.5 0-1.1-2.1 0-2.7C9.7 9.9 7.6 5 10.7 5c0.5-2.1 8-2.1 8.5 0.5 c0.4 1.8-1.1 4.5-1.1 4.8c1.1 0.5 0.5 2.7 0 2.7c0 2.1-1.6 3.2-1.6 3.2v3.2c3.6 1.4 6.7 2.3 8 3.6c2.1-2.4 3.3-5.6 3.3-9 C27.9 6.2 21.6 0 13.9 0C6.2 0 0 6.2 0 13.9c0 3.4 1.2 6.6 3.3 9C4.6 21.7 7.7 20.7 11.3 19.4z"/></g><circle fill="none" cx="13.9" cy="13.9" r="13.9"/><g><circle fill="none" cx="13.9" cy="13.9" r="13.9"/></g></svg>