<?xml version="1.0" encoding="UTF-8" standalone="no"?>
<svg width="10px" height="7px" viewBox="0 0 10 7" version="1.1" xmlns="http://www.w3.org/2000/svg" xmlns:xlink="http://www.w3.org/1999/xlink" xmlns:sketch="http://www.bohemiancoding.com/sketch/ns">
    <!-- Generator: Sketch 3.1 (8751) - http://www.bohemiancoding.com/sketch -->
    <title>dropdown</title>
    <desc>Created with Sketch.</desc>
    <defs></defs>
    <g id="Page-1" stroke="none" stroke-width="1" fill="none" fill-rule="evenodd" sketch:type="MSPage">
        <g id="Portrait" sketch:type="MSArtboardGroup" transform="translate(-706.000000, -61.000000)" fill="#5B6675">
            <g id="site-header-2" sketch:type="MSLayerGroup" transform="translate(664.000000, 49.075744)">
                <g id="site-header__links" transform="translate(0.000000, 6.000000)" sketch:type="MSShapeGroup">
                    <path d="M42.6750059,7.18747253 C44.1625111,9.8249818 46.5000193,12.1124898 46.6000197,12.1999902 C46.8250205,12.3999909 47.1750217,12.3999909 47.4000225,12.1999902 C47.5000229,12.1124898 49.8375311,9.8249818 51.3250363,7.18747253 C51.4250367,7.01247191 51.4250367,6.79997116 51.3250363,6.62497055 C51.225036,6.44996993 51.0500353,6.33746954 50.8500346,6.32496949 C50.8250346,6.31246945 48.950028,6.19996905 47.0000211,6.19996905 C45.0500142,6.19996905 43.1750076,6.31246945 43.1500076,6.32496949 C42.9500069,6.33746954 42.7625062,6.44996993 42.6750059,6.62497055 C42.5750055,6.79997116 42.5750055,7.01247191 42.6750059,7.18747253 L42.6750059,7.18747253 Z" id="dropdown"></path>
                </g>
            </g>
        </g>
    </g>
</svg>